<svg xmlns="http://www.w3.org/2000/svg" width="32" height="32" viewBox="0 0 32 32"><title>appliances-xl</title><path opacity="0.12" d="M16 29.329c-4.093 0-8.187-1.867-10.876-5.604-1.267-1.756-2.076-3.818-2.347-5.969-0.533-4.204 0.867-8.258 3.796-11.187 1.178-1.178 2.338-2.009 3.556-2.547l0.458 0.302c0.187 0.427 0.302 2.271-0.098 2.507-0.356 0.209-0.711 0.458-1.071 0.751-1.84 1.493-3.667 4.564-3.982 6.916-0.489 3.613 0.804 7.089 3.489 9.48 3.96 3.529 10.053 3.569 14.053 0.089 2.369-2.058 3.689-4.96 3.689-8.067 0-2.849-1.111-5.529-3.124-7.542-0.809-0.809-2.222-1.791-2.573-1.933 0.044 0.018 0.164-1.378 0.196-1.373l0.418-1.218c0.969 0.182 3.049 1.836 3.844 2.636 2.924 2.924 4.324 6.969 3.796 11.164-0.271 2.147-1.076 4.213-2.338 5.969-2.684 3.751-6.787 5.627-10.884 5.627z"></path><path opacity="0.24" d="M10.667 3.578v9.778c0 2.947 2.387 5.333 5.333 5.333v0c2.947 0 5.333-2.387 5.333-5.333v-9.778c-3.462-0.889-5.2-1.551-10.667 0z"></path><path d="M16 29.778c-7.596 0-13.778-6.182-13.778-13.778s6.182-13.778 13.778-13.778c7.596 0 13.778 6.182 13.778 13.778s-6.182 13.778-13.778 13.778zM16 3.111c-7.107 0-12.889 5.782-12.889 12.889s5.782 12.889 12.889 12.889c7.107 0 12.889-5.782 12.889-12.889s-5.782-12.889-12.889-12.889z"></path><path d="M3.239 3.87l0.629-0.629 3.017 3.017-0.629 0.629-3.017-3.017z"></path><path d="M1.778 7.556h3.556v0.893h-3.556v-0.893z"></path><path d="M7.556 1.778h0.893v3.556h-0.893v-3.556z"></path><path d="M25.113 6.256l3.017-3.017 0.629 0.629-3.017 3.017-0.629-0.629z"></path><path d="M26.667 7.556h3.556v0.893h-3.556v-0.893z"></path><path d="M23.556 1.778h0.893v3.556h-0.893v-3.556z"></path><path d="M18.667 13.333c0 1.473-1.194 2.667-2.667 2.667s-2.667-1.194-2.667-2.667c0-1.473 1.194-2.667 2.667-2.667s2.667 1.194 2.667 2.667z"></path><path d="M16 27.111c-6.129 0-11.111-4.982-11.111-11.111 0-3.956 2.129-7.64 5.556-9.622l0.444 0.769c-3.151 1.822-5.111 5.213-5.111 8.853 0 5.636 4.587 10.222 10.222 10.222s10.222-4.587 10.222-10.222c0-3.596-1.924-6.969-5.022-8.804l0.453-0.764c3.364 1.991 5.458 5.658 5.458 9.569 0 6.129-4.982 11.111-11.111 11.111z"></path><path d="M16 19.111c-3.187 0-5.778-2.591-5.778-5.778v-9.778h0.889v9.778c0 2.698 2.191 4.889 4.889 4.889s4.889-2.191 4.889-4.889v-9.778h0.889v9.778c0 3.187-2.591 5.778-5.778 5.778z"></path></svg>