<svg xmlns="http://www.w3.org/2000/svg" width="32" height="32" viewBox="0 0 32 32"><title>cellphones-xl</title><path d="M22.222 30.667h-12.444c-1.227 0-2.222-0.996-2.222-2.222v-24.889c0-1.227 0.996-2.222 2.222-2.222h12.444c1.227 0 2.222 0.996 2.222 2.222v24.889c0 1.227-0.996 2.222-2.222 2.222zM9.778 2.222c-0.733 0-1.333 0.6-1.333 1.333v24.889c0 0.733 0.6 1.333 1.333 1.333h12.444c0.733 0 1.333-0.6 1.333-1.333v-24.889c0-0.733-0.6-1.333-1.333-1.333h-12.444z"></path><path d="M20 28.889h-8c-0.244 0-0.444-0.2-0.444-0.444s0.2-0.444 0.444-0.444h8c0.244 0 0.444 0.2 0.444 0.444s-0.2 0.444-0.444 0.444z"></path><path d="M12.387 7.573c0.111 0.071 0.324 0.133 0.516 0.133 0.604 0 0.929-0.364 0.956-0.907-0.107 0.187-0.36 0.333-0.702 0.333-0.52 0-0.996-0.356-0.996-0.969 0-0.596 0.48-1.004 1.084-1.004 0.6 0 1.138 0.427 1.138 1.347 0 1.044-0.498 1.667-1.476 1.667-0.236 0-0.52-0.067-0.667-0.164l0.147-0.436zM13.231 5.613c-0.293 0-0.551 0.209-0.551 0.533 0 0.338 0.253 0.538 0.551 0.538 0.289 0 0.551-0.209 0.551-0.538 0-0.32-0.262-0.533-0.551-0.533z"></path><path d="M15.253 5.916c0.196 0 0.36 0.16 0.36 0.36 0 0.196-0.164 0.356-0.36 0.356-0.2 0-0.36-0.16-0.36-0.356 0-0.2 0.16-0.36 0.36-0.36zM15.258 7.418c0.196 0 0.36 0.16 0.36 0.36 0 0.196-0.164 0.356-0.36 0.356-0.2 0-0.36-0.16-0.36-0.356 0-0.2 0.16-0.36 0.36-0.36z"></path><path d="M16.071 6.898l1.227-1.671h0.684v1.778h0.484v0.471h-0.484v0.631h-0.524v-0.631h-1.387v-0.578zM17.453 5.764l-0.907 1.24h0.907v-1.24z"></path><path d="M19.32 8.107v-1.973h-0.698v-0.364c0.413-0.009 0.698-0.24 0.76-0.542h0.462v2.88h-0.524z"></path><path d="M7.333 9.111v-1.333c0-0.124 0.098-0.222 0.222-0.222v0c0.124 0 0.222 0.098 0.222 0.222v1.333c0 0.124-0.098 0.222-0.222 0.222v0c-0.124 0-0.222-0.098-0.222-0.222z"></path><path d="M7.333 11.778v-1.333c0-0.124 0.098-0.222 0.222-0.222v0c0.124 0 0.222 0.098 0.222 0.222v1.333c0 0.124-0.098 0.222-0.222 0.222v0c-0.124 0-0.222-0.098-0.222-0.222z"></path><path d="M24.667 8.222v3.111c0 0.124-0.098 0.222-0.222 0.222v0c-0.124 0-0.222-0.098-0.222-0.222v-3.111c0-0.124 0.098-0.222 0.222-0.222v0c0.124 0 0.222 0.098 0.222 0.222z"></path><path opacity="0.24" d="M21.778 12.889h-11.556c-0.244 0-0.444-0.2-0.444-0.444v-1.778c0-0.244 0.2-0.444 0.444-0.444h11.556c0.244 0 0.444 0.2 0.444 0.444v1.778c0 0.244-0.2 0.444-0.444 0.444z"></path><path opacity="0.24" d="M21.778 16h-11.556c-0.244 0-0.444-0.2-0.444-0.444v-1.778c0-0.244 0.2-0.444 0.444-0.444h11.556c0.244 0 0.444 0.2 0.444 0.444v1.778c0 0.244-0.2 0.444-0.444 0.444z"></path><path d="M19 3.111h-6c-0.551 0-1-0.4-1-0.889v-0.444h8v0.444c0 0.489-0.449 0.889-1 0.889z"></path></svg>