<svg xmlns="http://www.w3.org/2000/svg" width="32" height="32" viewBox="0 0 32 32"><title>email-footer</title><path d="M29.453 11.96l-12-9.6c-0.853-0.68-2.053-0.68-2.92 0l-12 9.6c-0.56 0.44-0.88 1.107-0.88 1.827v14.027c0 1.28 1.053 2.333 2.333 2.333h24c1.28 0 2.333-1.053 2.333-2.333v-14.027c0.013-0.707-0.307-1.373-0.867-1.827zM15.787 3.933c0.067-0.053 0.133-0.080 0.213-0.080s0.147 0.027 0.213 0.067l11.533 9.227-11.427 7.107c-0.16 0.107-0.453 0.107-0.613 0l-11.44-7.107 11.52-9.213zM28 28.147h-24c-0.187 0-0.333-0.147-0.333-0.333v-12.68l10.973 6.827c0.413 0.253 0.88 0.373 1.36 0.373s0.96-0.12 1.36-0.373l10.973-6.827v12.68c0 0.187-0.147 0.333-0.333 0.333z"></path></svg>