<svg xmlns="http://www.w3.org/2000/svg" width="32" height="32" viewBox="0 0 32 32"><title>feedback-fv4</title><path d="M16 3c7.17 0 13 5.83 13 13s-5.83 13-13 13-13-5.83-13-13 5.83-13 13-13zM16 1c-8.28 0-15 6.72-15 15s6.72 15 15 15 15-6.72 15-15-6.72-15-15-15v0z"></path><path d="M11 15c-1.65 0-3-1.35-3-3s1.35-3 3-3 3 1.35 3 3-1.35 3-3 3zM11 11c-0.55 0-1 0.45-1 1s0.45 1 1 1 1-0.45 1-1-0.45-1-1-1z"></path><path d="M18.5 12h5v2h-5v-2z"></path><path d="M16 25c-1.17 0-2.33-0.23-3.44-0.69l0.77-1.85c1.73 0.71 3.63 0.71 5.36 0 1.73-0.72 3.070-2.060 3.79-3.79l1.85 0.77c-0.92 2.22-2.65 3.95-4.87 4.87-1.13 0.46-2.29 0.69-3.46 0.69z"></path></svg>