<svg xmlns="http://www.w3.org/2000/svg" width="32" height="32" viewBox="0 0 32 32"><title>freeshipping-b</title><path d="M32 24h-2v-8.7l-3.54-5.3h-3.46v4h-2v-6h6.54l4.46 6.7z"></path><path d="M28 18h-11v-13h-15v9h-2v-11h19v13h9z"></path><path d="M6 28.41l-4.41-4.41 4.41-4.41 4.41 4.41-4.41 4.41zM4.41 24l1.59 1.59 1.59-1.59-1.59-1.59-1.59 1.59z"></path><path d="M24 28.41l-4.41-4.41 4.41-4.41 4.41 4.41-4.41 4.41zM22.41 24l1.59 1.59 1.59-1.59-1.59-1.59-1.59 1.59z"></path><path d="M0 16h15v2h-15v-2z"></path><path d="M12 22h6v2h-6v-2z"></path></svg>