<svg xmlns="http://www.w3.org/2000/svg" width="32" height="32" viewBox="0 0 32 32"><title>headphones-xl</title><path opacity="0.12" d="M24.382 4.889c0-0.627 0.284-1.213 0-1.72-0.658-1.187-1.973-1.956-3.458-1.818-1.844 0.173-3.209 1.809-3.209 3.658v8.769l2.667-0.444v-5.049c0-0.707 0.347-1.347 0.902-1.742l-0.902 1.893 0.889 0.004c1.338 0 2.507-0.742 3.111-1.836 0.284-0.502 0-1.089 0-1.716z"></path><path opacity="0.12" d="M7.618 8c0-0.627-0.284-1.213 0-1.72 0.658-1.187 1.973-1.956 3.458-1.818 1.844 0.173 3.209 1.809 3.209 3.658v5.658l-2.667-0.444v-1.938c0-0.707-0.347-1.347-0.902-1.742l0.902 1.893-0.889 0.004c-1.338 0-2.507-0.742-3.111-1.836-0.284-0.502 0-1.089 0-1.716z"></path><path d="M22.222 30.667h-12.444c-2.698 0-4.889-2.191-4.889-4.889v-12c0-0.489 0.4-0.889 0.889-0.889h5.28c0.396 0 0.787 0.093 1.138 0.271 0.231 0.116 0.484 0.173 0.742 0.173h6.116c0.258 0 0.516-0.062 0.742-0.173 0.351-0.178 0.747-0.271 1.142-0.271h5.284c0.489 0 0.889 0.4 0.889 0.889v12c0 2.698-2.191 4.889-4.889 4.889zM5.778 13.778v12c0 2.204 1.796 4 4 4h12.444c2.204 0 4-1.796 4-4v-12h-5.28c-0.258 0-0.516 0.062-0.742 0.173-0.351 0.178-0.747 0.271-1.142 0.271h-6.116c-0.396 0-0.787-0.093-1.138-0.271-0.231-0.111-0.489-0.173-0.747-0.173h-5.28z"></path><path d="M16.444 16.889c0 0.245-0.199 0.444-0.444 0.444s-0.444-0.199-0.444-0.444c0-0.245 0.199-0.444 0.444-0.444s0.444 0.199 0.444 0.444z"></path><path d="M23.027 4.889c0 0.245-0.199 0.444-0.444 0.444s-0.444-0.199-0.444-0.444c0-0.245 0.199-0.444 0.444-0.444s0.444 0.199 0.444 0.444z"></path><path d="M17.778 14.169c-0.218 0-0.391-0.173-0.391-0.391v-8.769c0-2.080 1.564-3.862 3.564-4.049 1.573-0.147 3.076 0.644 3.836 2.018 0.253 0.453 0.178 0.929 0.111 1.347-0.031 0.196-0.062 0.382-0.062 0.564s0.031 0.369 0.062 0.564c0.067 0.418 0.142 0.893-0.111 1.347-0.698 1.253-2.018 2.036-3.453 2.036l-0.889-0.004c-0.218 0-0.391-0.178-0.391-0.396s0.16-0.382 0.396-0.391l0.889 0.004c1.147 0 2.209-0.627 2.769-1.631 0.116-0.204 0.084-0.453 0.022-0.844-0.036-0.209-0.071-0.444-0.071-0.689s0.036-0.48 0.071-0.689c0.062-0.387 0.093-0.636-0.022-0.844-0.613-1.102-1.818-1.733-3.080-1.618-1.6 0.151-2.853 1.587-2.853 3.271v8.773c-0.004 0.218-0.178 0.391-0.396 0.391z"></path><path d="M20.444 13.724c-0.218 0-0.391-0.173-0.391-0.391v-5.049c0-0.818 0.4-1.587 1.067-2.062 0.178-0.124 0.422-0.084 0.547 0.093s0.084 0.422-0.093 0.547c-0.462 0.324-0.733 0.858-0.733 1.422v5.049c-0.004 0.218-0.178 0.391-0.396 0.391z"></path><path d="M19.556 5.249c-0.2 0-0.36-0.16-0.36-0.36 0-1.178 0.96-2.138 2.138-2.138 0.2 0 0.36 0.16 0.36 0.36s-0.16 0.36-0.36 0.36c-0.782 0-1.418 0.636-1.418 1.418 0 0.2-0.16 0.36-0.36 0.36z"></path><path d="M9.991 8c0 0.245-0.199 0.444-0.444 0.444s-0.444-0.199-0.444-0.444c0-0.245 0.199-0.444 0.444-0.444s0.444 0.199 0.444 0.444z"></path><path d="M14.347 14.169c-0.218 0-0.391-0.173-0.391-0.391v-5.658c0-1.684-1.253-3.12-2.853-3.271-1.258-0.12-2.467 0.516-3.080 1.618-0.116 0.204-0.084 0.453-0.022 0.844 0.031 0.209 0.071 0.444 0.071 0.689s-0.036 0.48-0.071 0.689c-0.062 0.387-0.093 0.636 0.022 0.844 0.56 1.009 1.618 1.631 2.769 1.631l0.884-0.004c0 0 0 0 0.004 0 0.213 0 0.391 0.173 0.391 0.391s-0.173 0.391-0.391 0.396l-0.889 0.004c-1.436 0-2.76-0.778-3.458-2.036-0.253-0.453-0.178-0.929-0.111-1.347 0.031-0.196 0.062-0.382 0.062-0.564s-0.031-0.369-0.062-0.564c-0.067-0.418-0.142-0.893 0.111-1.347 0.76-1.373 2.267-2.164 3.836-2.018 2 0.187 3.564 1.969 3.564 4.049v5.653c0.004 0.218-0.169 0.391-0.387 0.391z"></path><path d="M11.68 13.724c-0.218 0-0.391-0.173-0.391-0.391v-1.938c0-0.564-0.276-1.093-0.733-1.422-0.178-0.124-0.218-0.369-0.093-0.547s0.369-0.218 0.547-0.093c0.667 0.471 1.067 1.244 1.067 2.058v1.942c-0.004 0.218-0.178 0.391-0.396 0.391z"></path><path d="M12.569 8.36c-0.2 0-0.36-0.16-0.36-0.36 0-0.782-0.636-1.418-1.418-1.418-0.2 0-0.36-0.16-0.36-0.36s0.16-0.36 0.36-0.36c1.178 0 2.138 0.96 2.138 2.138 0 0.2-0.16 0.36-0.36 0.36z"></path><path d="M8.876 13.698c-2.16 0-3.92-1.76-3.92-3.92 0-1.578 0.938-2.996 2.391-3.609l0.284 0.667c-1.187 0.502-1.951 1.658-1.951 2.942 0 1.76 1.431 3.191 3.191 3.191v0.729z"></path><path d="M13.836 5.858h3.88v0.724h-3.88v-0.724z"></path><path d="M23.098 13.698v-0.724c1.76 0 3.191-1.431 3.191-3.191 0-1.28-0.76-2.436-1.942-2.938l0.284-0.667c1.444 0.618 2.382 2.031 2.382 3.604 0.004 2.156-1.751 3.916-3.916 3.916z"></path></svg>