<svg xmlns="http://www.w3.org/2000/svg" xmlns:xlink="http://www.w3.org/1999/xlink" viewBox="0 0 81 32"><path fill="#36e318" style="fill: var(--color2, #36e318)" d="M11.084 3.833v7.741h6.407v-4.283h1.961v6.128h-10.329v-11.431h10.329v1.845h-8.368z"></path><path fill="#36e318" style="fill: var(--color2, #36e318)" d="M31.7 1.988v11.438h-1.961v-4.623h-6.407v4.623h-1.954v-11.438h10.322zM29.74 6.952v-3.118h-6.407v3.118h6.407z"></path><path fill="#36e318" style="fill: var(--color2, #36e318)" d="M46.393 1.988h1.961v11.438h-1.961v-8.613l-4.099 4.317 2.975 3.118-1.341 1.368-2.928-3.091-2.941 3.091-1.341-1.375 2.975-3.118-4.099-4.317v8.613h-1.961v-11.431h1.961l5.406 5.719 5.392-5.719z"></path><path fill="#36e318" style="fill: var(--color2, #36e318)" d="M60.003 3.833h-7.762v2.792h7.666v1.845h-7.666v3.105h7.762v1.845h-9.723v-11.431h9.723v1.845z"></path><path fill="#36e318" style="fill: var(--color2, #36e318)" d="M69.644 3.833h-6.291v9.593h-1.961v-11.438h10.213v6.536h-1.961v-4.691zM66.832 6.856l5.263 5.392-1.355 1.369-5.263-5.392 1.355-1.369z"></path><path fill="#36e318" style="fill: var(--color2, #36e318)" d="M28.14 18.328v5.426l-6.257 6.012h-4.364v-11.438h10.621zM26.179 22.965v-2.791h-6.7v7.741h1.539l5.161-4.95z"></path><path fill="#36e318" style="fill: var(--color2, #36e318)" d="M40.116 18.328v11.438h-1.961v-4.623h-6.407v4.623h-1.961v-11.438h10.329zM38.155 23.292v-3.118h-6.407v3.118h6.407z"></path><path fill="#36e318" style="fill: var(--color2, #36e318)" d="M51.867 18.131l1.355 1.375-10.179 10.451-1.341-1.375 4.214-4.33-4.609-4.752 1.341-1.375 4.609 4.739 4.609-4.732z"></path><path fill="#36e318" style="fill: var(--color2, #36e318)" d="M63.503 20.174h-7.714v2.73h7.714v6.863h-9.675v-1.852h7.714v-3.173h-7.714v-6.42h9.675v1.852z"></path></svg>