<svg xmlns="http://www.w3.org/2000/svg" xmlns:xlink="http://www.w3.org/1999/xlink" viewBox="0 0 787 32"><path d="M33.8 17.6c0 4.227-2.987 7.013-9.893 7.133h-12.133c-8.213 0-9.56-4.573-9.56-7.333h6.48c0.173 1.027 1.413 1.587 3.493 1.587h11.733c2.32 0 3.28-0.467 3.28-1.267 0-0.587-0.493-1.080-2-1.080h-14.987c-5.107 0-7.68-2.347-7.68-5.987 0-3.573 2.32-7.093 9.56-7.16h11.947c8.307 0 9.333 5.133 9.333 7.133h-6.48c-0.12-0.853-0.907-1.587-3.027-1.587h-11.773c-2.44 0-2.987 0.68-2.987 1.293s0.493 1.080 1.813 1.080h15.48c4.88 0 7.4 2.547 7.4 6.187z"></path><path d="M68.32 3.84v20.533h-6.453v-7.627h-19.12v7.627h-6.453v-20.533h6.453v7.187h19.12v-7.187h6.453z"></path><path d="M105.52 14.107c0 6.36-4.693 10.627-11.267 10.627h-11.733c-6.427 0-11.267-4.253-11.267-10.627 0-6.333 4.693-10.627 11.267-10.627h11.733c6.573 0.013 11.267 4.293 11.267 10.627zM98.947 14.107c0-2.587-1.907-4.6-4.693-4.6h-11.733c-2.787 0-4.693 2.027-4.693 4.6 0 2.613 1.907 4.6 4.693 4.6h11.733c2.787 0.013 4.693-1.987 4.693-4.6z"></path><path d="M139.48 11.76c0 4.373-3.467 7.92-8.707 7.92h-16.453v4.693h-6.453v-20.533h22.907c5.253 0 8.707 3.547 8.707 7.92zM133.027 11.76c0-1.267-1.027-2.253-2.253-2.253h-16.453v4.52h16.453c1.227-0.013 2.253-1 2.253-2.267z"></path><path d="M182.573 3.84v20.533h-6.333l-19.68-12.853v12.853h-6.333v-20.533h6.333l19.68 12.88v-12.88h6.333z"></path><path d="M219.187 14.107c0 6.36-4.693 10.627-11.267 10.627h-11.733c-6.427 0-11.267-4.253-11.267-10.627 0-6.333 4.693-10.627 11.267-10.627h11.733c6.573 0.013 11.267 4.293 11.267 10.627zM212.613 14.107c0-2.587-1.907-4.6-4.693-4.6h-11.733c-2.787 0-4.693 2.027-4.693 4.6 0 2.613 1.907 4.6 4.693 4.6h11.733c2.787 0.013 4.693-1.987 4.693-4.6z"></path><path d="M273.627 3.84l-10.56 20.533h-8.893l-7.627-14-7.627 14h-8.893l-10.56-20.533h7.093l7.827 15.693 8.213-15.693h7.28l8.747 15.72 7.893-15.72h7.107z"></path><path d="M279.787 18.307v6.067l-2.587 4.133h-3.867l2.547-4.133h-2.547v-6.067h6.453z"></path><path d="M322.733 11.76c0 4.373-3.467 7.92-8.72 7.92h-16.453v4.693h-6.453v-20.533h22.907c5.253 0 8.72 3.547 8.72 7.92zM316.28 11.76c0-1.267-1.027-2.253-2.253-2.253h-16.453v4.52h16.453c1.227-0.013 2.253-1 2.253-2.267z"></path><path d="M348.773 21.12h-19.573l-0.853 3.253h-6.507l5.427-20.533h23.467l5.427 20.533h-6.547l-0.84-3.253zM347.28 15.4l-1.52-5.893h-13.56l-1.52 5.893h16.6z"></path><path d="M388.12 3.84l-14.080 12v8.533h-6.453v-8.56l-14.053-11.973h8.853l8.413 6.987 8.413-6.987h8.907z"></path><path d="M426.093 18.72v5.667h-27.84v-20.547h6.453v14.88h21.387z"></path><path d="M454.787 21.12h-19.573l-0.853 3.253h-6.507l5.427-20.533h23.467l5.427 20.533h-6.547l-0.84-3.253zM453.293 15.4l-1.52-5.893h-13.56l-1.52 5.893h16.6z"></path><path d="M493.16 9.507h-12.707v14.88h-6.453v-14.88h-12.707v-5.667h31.867v5.667z"></path><path d="M502.533 9.413v2.053h20.013v5.333h-20.013v2h22v5.573h-28.453v-20.533h28.453v5.573h-22z"></path><path d="M527.467 3.84h22.907c5.253 0 8.707 3.547 8.707 7.92 0 3.080-1.733 5.747-4.573 7.067l3.64 5.547h-7.48l-2.787-4.693h-13.933v4.693h-6.48v-20.533zM550.387 14.013c1.227 0 2.253-1 2.253-2.253s-1.027-2.253-2.253-2.253h-16.427v4.52h16.427z"></path><path d="M568.133 18.307v6.067l-2.587 4.133h-3.867l2.547-4.133h-2.547v-6.067h6.453z"></path><path d="M611.813 3.84v20.533h-6.333l-19.68-12.853v12.853h-6.333v-20.533h6.333l19.68 12.88v-12.88h6.333z"></path><path d="M648.413 14.107c0 6.36-4.693 10.627-11.267 10.627h-11.733c-6.427 0-11.267-4.253-11.267-10.627 0-6.333 4.693-10.627 11.267-10.627h11.733c6.573 0.013 11.267 4.293 11.267 10.627zM641.84 14.107c0-2.587-1.907-4.6-4.693-4.6h-11.733c-2.787 0-4.693 2.027-4.693 4.6 0 2.613 1.907 4.6 4.693 4.6h11.733c2.787 0.013 4.693-1.987 4.693-4.6z"></path><path d="M665.6 9.413v2.813h20.013v5.573h-20.013v6.573h-6.453v-20.533h28.453v5.573h-22z"></path><path d="M696.987 9.413v2.053h20.013v5.333h-20.013v2h22v5.573h-28.453v-20.533h28.453v5.573h-22z"></path><path d="M728.373 9.413v2.053h20.013v5.333h-20.013v2h22v5.573h-28.453v-20.533h28.453v5.573h-22z"></path><path d="M784.467 17.6c0 4.227-2.987 7.013-9.893 7.133h-12.147c-8.213 0-9.56-4.573-9.56-7.333h6.48c0.173 1.027 1.413 1.587 3.493 1.587h11.733c2.32 0 3.28-0.467 3.28-1.267 0-0.587-0.493-1.080-2-1.080h-14.987c-5.107 0-7.693-2.347-7.693-5.987 0-3.573 2.32-7.093 9.56-7.16h11.947c8.307 0 9.333 5.133 9.333 7.133h-6.48c-0.12-0.853-0.907-1.587-3.027-1.587h-11.76c-2.44 0-3 0.68-3 1.293s0.493 1.080 1.813 1.080h15.493c4.893 0 7.413 2.547 7.413 6.187z"></path></svg>