<svg xmlns="http://www.w3.org/2000/svg" xmlns:xlink="http://www.w3.org/1999/xlink" viewBox="0 0 60 32"><path fill="#5500d5" d="M4.027 19.607c-0.82 0.147-1.513 0.127-2.080-0.053s-1.053-0.46-1.453-0.833l1.333-1.587c0.633 0.593 1.407 0.807 2.333 0.647 0.5-0.087 0.867-0.253 1.107-0.5s0.36-0.533 0.36-0.873c0-0.253-0.073-0.453-0.213-0.6s-0.433-0.213-0.867-0.2l-0.92 0.047c-0.987 0.047-1.707-0.12-2.167-0.513s-0.687-0.98-0.687-1.76c0-0.42 0.080-0.813 0.24-1.193s0.387-0.713 0.687-1.013c0.3-0.3 0.66-0.56 1.093-0.773s0.92-0.367 1.473-0.467c0.7-0.127 1.32-0.12 1.853 0.007s0.993 0.373 1.373 0.733l-1.347 1.6c-0.22-0.213-0.493-0.38-0.807-0.487s-0.713-0.12-1.193-0.033c-0.453 0.080-0.793 0.22-1.013 0.413-0.22 0.2-0.333 0.44-0.333 0.72 0 0.32 0.087 0.533 0.26 0.64 0.173 0.113 0.453 0.16 0.847 0.153l0.92-0.013c0.96-0.020 1.673 0.153 2.133 0.513s0.693 0.947 0.693 1.753c0 0.447-0.080 0.867-0.24 1.273-0.16 0.4-0.393 0.767-0.7 1.087s-0.687 0.593-1.14 0.82c-0.453 0.227-0.967 0.393-1.547 0.493z"></path><path fill="#5500d5" d="M12.907 10.373v7.507l-2.027 0.36v-7.507l-2.52 0.447v-1.8l7.067-1.247v1.8l-2.52 0.44z"></path><path fill="#5500d5" d="M18.733 7.547v5.707c0 0.66 0.127 1.127 0.387 1.407s0.687 0.367 1.293 0.26c0.607-0.107 1.033-0.347 1.293-0.713 0.26-0.373 0.387-0.887 0.387-1.54v-5.707l1.973-0.347v5.493c0 0.687-0.067 1.287-0.193 1.813s-0.34 0.973-0.633 1.353c-0.293 0.373-0.673 0.68-1.133 0.92-0.46 0.233-1.027 0.413-1.693 0.533s-1.233 0.14-1.693 0.067c-0.46-0.073-0.84-0.247-1.133-0.52s-0.507-0.647-0.633-1.127c-0.127-0.48-0.193-1.060-0.193-1.747v-5.493l1.973-0.36z"></path><path fill="#5500d5" d="M26.067 6.253l3.507-0.62c0.613-0.107 1.173-0.107 1.68 0s0.94 0.32 1.293 0.647c0.353 0.327 0.633 0.76 0.827 1.307s0.293 1.207 0.293 1.98-0.1 1.467-0.293 2.087c-0.193 0.613-0.473 1.147-0.827 1.6-0.353 0.447-0.787 0.82-1.293 1.1-0.507 0.287-1.067 0.48-1.68 0.587l-3.507 0.62v-9.307zM29.573 13.14c0.607-0.107 1.080-0.36 1.427-0.76s0.52-0.973 0.52-1.72v-1.44c0-0.747-0.173-1.26-0.52-1.533s-0.82-0.36-1.427-0.253l-1.48 0.26v5.707l1.48-0.26z"></path><path fill="#5500d5" d="M35.36 13.92v-9.307l6.333-1.12v1.8l-4.307 0.76v1.893l3.693-0.653v1.8l-3.693 0.653v2.013l4.307-0.76v1.8l-6.333 1.12z"></path><path fill="#5500d5" d="M46.293 7.593l-0.893-1.707-0.040 0.007v6.267l-1.907 0.333v-9.307l2.213-0.387 2.547 3.953 0.893 1.707 0.040-0.007v-6.267l1.907-0.333v9.307l-2.213 0.393-2.547-3.96z"></path><path fill="#5500d5" d="M56.987 2.6v7.507l-2.027 0.36v-7.507l-2.52 0.447v-1.8l7.067-1.247v1.8l-2.52 0.44z"></path><path fill="#5500d5" d="M10 22.42l3.507-0.62c0.613-0.107 1.173-0.107 1.68 0s0.94 0.32 1.293 0.647 0.633 0.76 0.827 1.307c0.193 0.547 0.293 1.207 0.293 1.98s-0.1 1.467-0.293 2.087c-0.193 0.613-0.473 1.147-0.827 1.6s-0.787 0.813-1.293 1.1c-0.507 0.287-1.067 0.48-1.68 0.587l-3.507 0.62v-9.307zM13.507 29.307c0.607-0.107 1.080-0.36 1.427-0.76s0.52-0.973 0.52-1.72v-1.44c0-0.747-0.173-1.26-0.52-1.533-0.347-0.28-0.82-0.36-1.427-0.253l-1.48 0.26v5.707l1.48-0.26z"></path><path fill="#5500d5" d="M19.293 30.087v-9.307l6.333-1.12v1.8l-4.307 0.76v1.893l3.693-0.653v1.8l-3.693 0.653v2.013l4.307-0.76v1.8l-6.333 1.12z"></path><path fill="#5500d5" d="M33.12 27.653l-0.667-2.093-3.107 0.547-0.667 2.333-2.053 0.36 3.067-9.847 2.507-0.44 3.027 8.773-2.107 0.367zM30.92 20.573l-0.067 0.013-1.027 3.713 2.133-0.373-1.040-3.353z"></path><path fill="#5500d5" d="M36.52 27.053v-9.307l2.027-0.36v7.507l3.547-0.627v1.8l-5.573 0.987z"></path><path fill="#5500d5" d="M46.6 25.433c-0.82 0.147-1.513 0.127-2.080-0.053s-1.053-0.46-1.453-0.833l1.333-1.587c0.633 0.593 1.407 0.807 2.333 0.647 0.5-0.087 0.867-0.253 1.107-0.5s0.36-0.533 0.36-0.867c0-0.253-0.073-0.453-0.213-0.6s-0.433-0.213-0.867-0.2l-0.92 0.040c-0.987 0.047-1.707-0.12-2.167-0.513s-0.687-0.98-0.687-1.76c0-0.42 0.080-0.813 0.24-1.193 0.16-0.373 0.387-0.713 0.687-1.013s0.66-0.56 1.093-0.773c0.433-0.213 0.92-0.367 1.473-0.467 0.7-0.127 1.32-0.12 1.853 0.007s0.993 0.373 1.373 0.733l-1.347 1.6c-0.22-0.213-0.493-0.38-0.807-0.487s-0.713-0.12-1.193-0.033c-0.453 0.080-0.793 0.22-1.013 0.413-0.22 0.2-0.333 0.44-0.333 0.72 0 0.32 0.087 0.533 0.26 0.64s0.453 0.16 0.847 0.153l0.92-0.013c0.96-0.020 1.673 0.153 2.133 0.513s0.693 0.94 0.693 1.753c0 0.447-0.080 0.867-0.24 1.273s-0.393 0.767-0.7 1.087-0.687 0.593-1.14 0.82c-0.453 0.227-0.967 0.393-1.547 0.493z"></path><path fill="#5500d5" d="M48.733 29.607h10.667v2h-10.667v-2z"></path><path fill="#5500d5" d="M0.733 0.273h10.667v2h-10.667v-2z"></path></svg>