<svg xmlns="http://www.w3.org/2000/svg" xmlns:xlink="http://www.w3.org/1999/xlink" viewBox="0 0 65 32"><path fill="#00f" d="M0.439 0.506h64v16.516h-64v-16.516z"></path><path fill="#00a99d" d="M15.406 14.957h33.032v16.516h-33.032v-16.516z"></path><path fill="#fff" d="M5.884 12.403v-8.052h1.569v6.555h3.587v1.497h-5.156z"></path><path fill="#fff" d="M13.523 9.187l1.373-0.206c0.32-0.046 0.418-0.206 0.418-0.397 0-0.397-0.305-0.728-0.945-0.728-0.661 0-1.022 0.418-1.068 0.908l-1.342-0.284c0.093-0.872 0.898-1.837 2.395-1.837 1.77 0 2.431 1.001 2.431 2.121v2.746c0 0.294 0.036 0.692 0.067 0.888h-1.383c-0.036-0.15-0.057-0.454-0.057-0.671-0.284 0.444-0.815 0.831-1.646 0.831-1.192 0-1.92-0.805-1.92-1.683 0.010-0.991 0.748-1.548 1.677-1.688zM15.319 10.142v-0.248l-1.259 0.191c-0.387 0.057-0.692 0.274-0.692 0.702 0 0.33 0.237 0.645 0.728 0.645 0.635 0.005 1.223-0.299 1.223-1.29z"></path><path fill="#fff" d="M18.317 12.403v-8.222h1.486v3.246c0.248-0.397 0.862-0.759 1.693-0.759 1.636 0 2.575 1.259 2.575 2.921 0 1.693-1.043 2.952-2.632 2.952-0.774 0-1.363-0.341-1.657-0.815v0.681h-1.466zM21.177 8.021c-0.759 0-1.399 0.557-1.399 1.579 0 1.012 0.635 1.59 1.399 1.59 0.774 0 1.383-0.568 1.383-1.59 0.005-1.022-0.609-1.579-1.383-1.579z"></path><path fill="#fff" d="M30.705 9.61c0 1.714-1.259 2.963-2.932 2.963s-2.932-1.249-2.932-2.963c0-1.724 1.259-2.963 2.932-2.963s2.932 1.234 2.932 2.963zM29.192 9.61c0-1.058-0.681-1.59-1.419-1.59s-1.419 0.532-1.419 1.59c0 1.043 0.681 1.59 1.419 1.59s1.419-0.537 1.419-1.59z"></path><path fill="#fff" d="M35.303 8.315c-0.17-0.036-0.32-0.046-0.454-0.046-0.774 0-1.44 0.377-1.44 1.579v2.555h-1.512v-5.585h1.466v0.831c0.341-0.738 1.115-0.872 1.59-0.872 0.124 0 0.237 0.010 0.351 0.021v1.517z"></path><path fill="#fff" d="M39.252 12.403v-8.052h2.885c2.292 0 3.974 1.486 3.974 4.031s-1.693 4.021-3.985 4.021h-2.875zM42.070 10.947c1.316 0 2.421-0.815 2.421-2.565s-1.089-2.575-2.41-2.575h-1.259v5.146h1.249z"></path><path fill="#fff" d="M48.692 9.187l1.373-0.206c0.32-0.046 0.418-0.206 0.418-0.397 0-0.397-0.305-0.728-0.945-0.728-0.661 0-1.022 0.418-1.068 0.908l-1.342-0.284c0.093-0.872 0.898-1.837 2.395-1.837 1.77 0 2.431 1.001 2.431 2.121v2.746c0 0.294 0.036 0.692 0.067 0.888h-1.383c-0.036-0.15-0.057-0.454-0.057-0.671-0.284 0.444-0.815 0.831-1.646 0.831-1.192 0-1.92-0.805-1.92-1.683 0.005-0.991 0.743-1.548 1.677-1.688zM50.483 10.142v-0.248l-1.259 0.191c-0.387 0.057-0.692 0.274-0.692 0.702 0 0.33 0.237 0.645 0.728 0.645 0.635 0.005 1.223-0.299 1.223-1.29z"></path><path fill="#fff" d="M53.662 14.606l1.316-2.906-2.374-4.883h1.693l1.486 3.272 1.373-3.272h1.61l-3.51 7.788h-1.595z"></path><path fill="#fff" d="M25.672 21.425c-0.077-0.444-0.444-1.135-1.466-1.135-0.759 0-1.259 0.49-1.259 1.022 0 0.444 0.284 0.795 0.872 0.908l1.125 0.217c1.466 0.284 2.25 1.239 2.25 2.374 0 1.239-1.032 2.488-2.906 2.488-2.137 0-3.076-1.373-3.2-2.519l1.455-0.387c0.067 0.795 0.625 1.512 1.76 1.512 0.841 0 1.306-0.418 1.306-0.986 0-0.465-0.351-0.831-0.975-0.955l-1.125-0.227c-1.285-0.263-2.111-1.089-2.111-2.307 0-1.43 1.285-2.519 2.803-2.519 1.951 0 2.705 1.182 2.885 2.090l-1.414 0.423z"></path><path fill="#fff" d="M29.719 23.912l1.373-0.206c0.32-0.046 0.418-0.206 0.418-0.397 0-0.397-0.305-0.728-0.945-0.728-0.661 0-1.022 0.418-1.068 0.908l-1.342-0.284c0.093-0.872 0.898-1.837 2.395-1.837 1.77 0 2.431 1.001 2.431 2.121v2.751c0 0.294 0.036 0.692 0.067 0.888h-1.383c-0.036-0.15-0.057-0.454-0.057-0.671-0.284 0.444-0.815 0.831-1.646 0.831-1.192 0-1.92-0.805-1.92-1.683 0.005-1.001 0.743-1.559 1.677-1.693zM31.51 24.867v-0.248l-1.259 0.191c-0.387 0.057-0.692 0.274-0.692 0.702 0 0.33 0.237 0.645 0.728 0.645 0.635 0 1.223-0.305 1.223-1.29z"></path><path fill="#fff" d="M34.508 27.123v-8.222h1.512v8.222h-1.512z"></path><path fill="#fff" d="M42.637 25.523c-0.284 0.965-1.172 1.77-2.545 1.77-1.533 0-2.885-1.099-2.885-2.988 0-1.786 1.316-2.942 2.746-2.942 1.724 0 2.761 1.099 2.761 2.895 0 0.217-0.021 0.444-0.021 0.465h-4c0.036 0.738 0.661 1.27 1.409 1.27 0.702 0 1.089-0.351 1.27-0.852l1.265 0.382zM41.228 23.695c-0.021-0.557-0.387-1.099-1.249-1.099-0.785 0-1.213 0.588-1.249 1.099h2.498z"></path></svg>