<svg xmlns="http://www.w3.org/2000/svg" xmlns:xlink="http://www.w3.org/1999/xlink" viewBox="0 0 81 32"><path d="M24.579 12.957v-11.391h2.24l5.46 7.074v-7.074h2.437v11.391h-2.056l-5.644-7.271v7.271h-2.437z"></path><path d="M36.276 12.957v-11.391h7.775v2.288h-5.263v2.138h4.916v2.24h-4.916v2.437h5.379v2.288h-7.891z"></path><path d="M46.604 3.105c1.191-1.144 2.628-1.716 4.317-1.716 1.682 0 3.118 0.572 4.296 1.716 1.191 1.144 1.784 2.533 1.784 4.18s-0.586 3.057-1.763 4.201c-1.178 1.13-2.614 1.702-4.317 1.702-1.682 0-3.118-0.572-4.317-1.702-1.178-1.144-1.763-2.546-1.763-4.201s0.586-3.037 1.763-4.18zM48.388 9.866c0.688 0.688 1.532 1.028 2.533 1.028 0.994 0 1.831-0.34 2.519-1.049 0.701-0.701 1.048-1.566 1.048-2.567 0-0.994-0.34-1.845-1.028-2.546-0.694-0.701-1.546-1.055-2.54-1.055s-1.845 0.361-2.533 1.062c-0.688 0.701-1.028 1.552-1.028 2.546-0.007 1.028 0.34 1.879 1.028 2.58z"></path><path d="M22.046 20.119c1.192-1.144 2.648-1.716 4.33-1.716s3.105 0.572 4.283 1.716c1.178 1.13 1.763 2.519 1.763 4.167 0 1.389-0.477 2.614-1.423 3.677l1.049 1.226-1.682 1.423-1.096-1.273c-0.803 0.524-1.763 0.783-2.894 0.783-1.682 0-3.139-0.558-4.33-1.682-1.192-1.13-1.784-2.519-1.784-4.153 0-1.648 0.592-3.037 1.784-4.167zM27.67 27.574l-1.423-1.634 1.682-1.437 1.457 1.682c0.34-0.524 0.524-1.157 0.524-1.893 0-0.994-0.34-1.831-1.028-2.533s-1.518-1.062-2.499-1.062c-0.994 0-1.845 0.34-2.546 1.049-0.701 0.701-1.049 1.552-1.049 2.546s0.34 1.845 1.028 2.533c0.701 0.667 1.552 1.014 2.567 1.014 0.497-0.007 0.926-0.088 1.287-0.266z"></path><path d="M33.45 29.978v-11.391h2.519v9.103h4.446v2.288h-6.965z"></path><path d="M41.294 29.978v-11.391h7.782v2.288h-5.263v2.138h4.916v2.24h-4.916v2.437h5.379v2.288h-7.898z"></path><path d="M50.397 29.978v-11.391h4.317c1.927 0 3.418 0.524 4.46 1.586 1.062 1.049 1.586 2.417 1.586 4.133s-0.524 3.105-1.566 4.133c-1.028 1.028-2.519 1.539-4.46 1.539h-4.337zM52.909 27.69h1.648c2.683 0 3.663-1.294 3.663-3.384 0-1.062-0.279-1.913-0.831-2.519-0.538-0.606-1.484-0.912-2.846-0.912h-1.634v6.815z"></path></svg>