<svg xmlns="http://www.w3.org/2000/svg" xmlns:xlink="http://www.w3.org/1999/xlink" viewBox="0 0 80 32"><path fill="#fff" style="fill: var(--color1, #fff)" d="M19.227 10.32c0 1.633-0.8 3.12-3.667 3.12h-4.227v-10.88h4.227c2.433 0 3.347 1.267 3.347 2.653 0 1.12-0.573 2.173-2.173 2.287v0.253c1.867 0.12 2.493 1.16 2.493 2.567zM13.413 6.64h2.067c0.96 0 1.347-0.24 1.347-1.007 0-0.753-0.387-0.993-1.347-0.993h-2.067v2zM17.147 9.953c0-0.993-0.467-1.233-1.587-1.233h-2.147v2.48h2.147c1.12 0 1.587-0.24 1.587-1.247z"></path><path fill="#fff" style="fill: var(--color1, #fff)" d="M22.827 4.64v2.24h4.127v2.080h-4.127v2.4h5.247v2.080h-7.167v-10.88h7.167v2.080h-5.247z"></path><path fill="#fff" style="fill: var(--color1, #fff)" d="M29.753 9.793c1.507 1.027 3.407 1.567 4.847 1.567 1.427 0 2.253-0.127 2.253-1.027 0-0.927-0.893-1.040-2.96-1.52-2.893-0.653-3.987-1.487-3.987-3.267 0-2.080 1.633-2.993 4.113-2.993 1.293 0 2.973 0.387 4.047 0.913v2.113c-1.6-0.593-3.233-0.947-4.253-0.947-1.040 0-1.827 0.093-1.827 0.847 0 0.767 0.833 0.947 2.467 1.313 3.087 0.707 4.48 1.267 4.48 3.473 0 2.227-1.793 3.167-4.333 3.167-1.533 0-3.747-0.573-4.847-1.427v-2.213z"></path><path fill="#fff" style="fill: var(--color1, #fff)" d="M47.707 4.64h-3.107v8.8h-2.080v-8.8h-3.107v-2.080h8.287v2.080z"></path><path fill="#fff" style="fill: var(--color1, #fff)" d="M55.54 2.56h2.080v10.88h-2.080v-10.88z"></path><path fill="#fff" style="fill: var(--color1, #fff)" d="M68.667 2.56v10.88h-2.080l-4.707-6.847h-0.253v6.847h-2.080v-10.88h2.080l4.707 6.847h0.253v-6.847h2.080z"></path><path fill="#fff" style="fill: var(--color1, #fff)" d="M20.107 18.56c3.053 0 4.573 1.907 4.673 4.147h-2.080c-0.273-1.487-0.813-2.067-2.593-2.067-1.907 0-2.833 0.707-2.833 3.36s0.927 3.36 2.833 3.36c1.773 0 2.32-0.573 2.593-2.067h2.080c-0.093 2.24-1.613 4.147-4.673 4.147-3.567 0-4.913-2.72-4.913-5.44s1.34-5.44 4.913-5.44z"></path><path fill="#fff" style="fill: var(--color1, #fff)" d="M32.587 27.36v2.080h-6.207v-10.88h2.080v8.8h4.127z"></path><path fill="#fff" style="fill: var(--color1, #fff)" d="M41.047 27.36h-4.173l-0.627 2.080h-2.227l3.327-10.88h3.213l3.313 10.88h-2.207l-0.62-2.080zM40.427 25.28l-1.347-4.433h-0.253l-1.327 4.433h2.927z"></path><path fill="#fff" style="fill: var(--color1, #fff)" d="M44.92 25.793c1.507 1.027 3.407 1.567 4.847 1.567 1.427 0 2.253-0.127 2.253-1.027 0-0.927-0.893-1.040-2.96-1.52-2.893-0.653-3.987-1.487-3.987-3.267 0-2.080 1.633-2.993 4.113-2.993 1.293 0 2.973 0.387 4.047 0.913v2.113c-1.6-0.593-3.233-0.947-4.253-0.947-1.040 0-1.827 0.093-1.827 0.847 0 0.767 0.833 0.947 2.467 1.313 3.087 0.707 4.48 1.267 4.48 3.473 0 2.227-1.793 3.167-4.333 3.167-1.533 0-3.747-0.573-4.847-1.427v-2.213z"></path><path fill="#fff" style="fill: var(--color1, #fff)" d="M55.467 25.793c1.507 1.027 3.407 1.567 4.847 1.567 1.427 0 2.253-0.127 2.253-1.027 0-0.927-0.893-1.040-2.96-1.52-2.893-0.653-3.987-1.487-3.987-3.267 0-2.080 1.633-2.993 4.113-2.993 1.293 0 2.973 0.387 4.047 0.913v2.113c-1.6-0.593-3.233-0.947-4.253-0.947-1.040 0-1.827 0.093-1.827 0.847 0 0.767 0.833 0.947 2.467 1.313 3.087 0.707 4.48 1.267 4.48 3.473 0 2.227-1.793 3.167-4.333 3.167-1.533 0-3.747-0.573-4.847-1.427v-2.213z"></path></svg>