<svg xmlns="http://www.w3.org/2000/svg" xmlns:xlink="http://www.w3.org/1999/xlink" viewBox="0 0 81 32"><path fill="#80f8ff" style="fill: var(--color3, #80f8ff)" d="M27.615 5.263h-7.074v8.286h-3.595v-8.286h-7.074v-3.152h17.75v3.152z"></path><path fill="#80f8ff" style="fill: var(--color3, #80f8ff)" d="M29.249 2.111h12.766c2.928 0 4.854 1.974 4.854 4.412 0 1.716-0.967 3.2-2.546 3.935l2.029 3.091h-4.167l-1.552-2.614h-7.762v2.614h-3.608v-11.438zM42.015 7.782c0.688 0 1.26-0.558 1.26-1.26s-0.572-1.26-1.26-1.26h-9.151v2.519h9.151z"></path><path fill="#80f8ff" style="fill: var(--color3, #80f8ff)" d="M48.306 2.111h3.595v11.438h-3.595v-11.438z"></path><path fill="#80f8ff" style="fill: var(--color3, #80f8ff)" d="M71.149 6.523c0 2.437-1.927 4.412-4.854 4.412h-9.164v2.614h-3.595v-11.438h12.766c2.921 0 4.848 1.974 4.848 4.412zM67.554 6.523c0-0.701-0.572-1.26-1.26-1.26h-9.164v2.519h9.171c0.681 0 1.253-0.558 1.253-1.26z"></path><path fill="#80f8ff" style="fill: var(--color3, #80f8ff)" d="M20.276 18.451v11.438h-3.595v-4.248h-10.655v4.248h-3.595v-11.438h3.595v4.003h10.655v-4.003h3.595z"></path><path fill="#80f8ff" style="fill: var(--color3, #80f8ff)" d="M36.582 28.078h-10.9l-0.477 1.811h-3.629l3.023-11.438h13.072l3.023 11.438h-3.643l-0.47-1.811zM35.745 24.892l-0.851-3.282h-7.544l-0.851 3.282h9.246z"></path><path fill="#80f8ff" style="fill: var(--color3, #80f8ff)" d="M41.675 18.451h12.766c2.928 0 4.854 1.974 4.854 4.412 0 1.716-0.967 3.2-2.546 3.935l2.029 3.091h-4.174l-1.552-2.614h-7.762v2.614h-3.608v-11.438zM54.441 24.123c0.688 0 1.26-0.558 1.26-1.26s-0.572-1.26-1.26-1.26h-9.151v2.519h9.151z"></path><path fill="#80f8ff" style="fill: var(--color3, #80f8ff)" d="M78.591 24.17c0 3.527-2.71 5.719-6.291 5.719h-11.568v-11.438h11.568c3.581 0 6.291 2.172 6.291 5.719zM74.934 24.17c0-1.471-1.11-2.58-2.628-2.58h-8v5.161h7.993c1.518-0.034 2.635-1.123 2.635-2.58z"></path></svg>