<svg xmlns="http://www.w3.org/2000/svg" width="71" height="32" viewBox="0 0 71 32"><title>rtx_30</title><path fill="#b2e82f" d="M12.665 8.604v-7.964h5.611l1.479 1.479v2.254l-1.422 1.422 1.685 2.354v0.455h-1.33l-1.924-2.731h-2.731v2.731h-1.369zM14.030 4.7h3.563l0.796-0.796v-1.294l-0.8-0.796h-3.559v2.887z"></path><path fill="#b2e82f" d="M23.655 8.604v-6.759h-3.083v-1.205h7.531v1.205h-3.083v6.759h-1.365z"></path><path fill="#b2e82f" d="M28.352 8.604v-0.455l2.823-3.676-2.596-3.378v-0.455h1.355l2.14 2.855h0.181l2.14-2.855h1.287v0.455l-2.596 3.378 2.823 3.676v0.455h-1.344l-2.368-3.164h-0.192l-2.354 3.164h-1.301z"></path><path fill="#b2e82f" d="M40.185 8.604v-1.205h4.825l0.683-0.683v-0.946l-0.683-0.693h-3.164v-1.173h2.948l0.672-0.672v-0.818l-0.569-0.569h-4.587v-1.205h5.269l1.252 1.252v1.593l-0.853 0.853 1.081 1.092v1.831l-1.344 1.344h-5.529z"></path><path fill="#b2e82f" d="M50.197 8.604l-1.614-1.614v-4.736l1.614-1.614h4.075l1.614 1.614v4.732l-1.614 1.614h-4.075zM50.848 7.399h2.777l0.9-0.9v-3.755l-0.9-0.9h-2.777l-0.9 0.9v3.755l0.9 0.9z"></path><path fill="#b2e82f" d="M16.661 19.982v-1.205h5.006l0.569-0.569v-1.092l-0.58-0.58h-3.822l-1.298-1.298v-1.934l1.287-1.287h5.383v1.205h-4.736l-0.569 0.569v0.956l0.58 0.58h3.822l1.298 1.298v2.069l-1.287 1.287h-5.653z"></path><path fill="#b2e82f" d="M26.162 19.982l-1.319-1.319v-3.051l1.319-1.319h3.175l1.319 1.319v2.094h-4.526v0.491l0.647 0.647h3.47v1.138h-4.085zM26.13 16.647h3.243v-0.604l-0.647-0.647h-1.945l-0.647 0.647v0.604z"></path><path fill="#b2e82f" d="M32.078 19.982v-5.689h1.013v0.455h0.217l0.533-0.455h2.208v1.138h-1.97l-0.718 0.59v3.961h-1.284z"></path><path fill="#b2e82f" d="M36.779 13.223v-1.205h1.376v1.205h-1.376zM36.825 19.982v-5.689h1.287v5.689h-1.287z"></path><path fill="#b2e82f" d="M40.953 19.982l-1.319-1.319v-3.051l1.319-1.319h3.175l1.319 1.319v2.094h-4.53v0.491l0.647 0.647h3.47v1.138h-4.082zM40.921 16.647h3.243v-0.604l-0.647-0.647h-1.945l-0.647 0.647v0.604z"></path><path fill="#b2e82f" d="M46.656 19.982v-1.116h3.708l0.306-0.306v-0.569l-0.306-0.32h-2.777l-1.003-0.988v-1.401l1.003-0.988h4.075v1.102h-3.47l-0.32 0.32v0.533l0.32 0.32h2.777l0.988 0.988v1.422l-0.988 1.003h-4.313z"></path><path fill="#b2e82f" d="M5.739 31.36l-1.614-1.614v-4.736l1.614-1.614h5.532v1.205h-4.882l-0.9 0.9v3.755l0.9 0.9h3.278l0.9-0.9v-1.387h-2.855v-1.138h4.22v3.015l-1.614 1.614h-4.58z"></path><path fill="#b2e82f" d="M14.158 31.36l-1.003-1.003v-1.5l1.081-1.081h3.253v-0.491l-0.476-0.476h-3.108v-1.138h3.719l1.148 1.148v4.54h-1.013v-0.533h-0.192l-0.661 0.533h-2.748zM14.763 30.244h1.924l0.807-0.647v-0.775h-2.628l-0.42 0.42v0.693l0.316 0.309z"></path><path fill="#b2e82f" d="M20.359 31.36v-5.689h1.013v0.455h0.217l0.533-0.455h2.105l0.661 0.661h0.249l0.786-0.661h2.105l1.216 1.216v4.473h-1.287v-4.004l-0.544-0.548h-1.252l-0.718 0.58v3.972h-1.287v-4.004l-0.548-0.548h-1.244l-0.718 0.58v3.972h-1.287z"></path><path fill="#b2e82f" d="M32.036 31.36l-1.319-1.319v-3.051l1.319-1.319h3.175l1.319 1.319v2.094h-4.53v0.491l0.647 0.647h3.47v1.138h-4.082zM32 28.025h3.243v-0.604l-0.647-0.647h-1.945l-0.651 0.651v0.601z"></path><path fill="#b2e82f" d="M37.952 31.36v-5.689h1.013v0.455h0.217l0.533-0.455h2.208v1.138h-1.97l-0.718 0.59v3.961h-1.284z"></path><path fill="#b2e82f" d="M46.62 31.36v-7.964h5.54l1.479 1.479v2.56l-1.479 1.479h-4.174v2.446h-1.365zM47.986 27.708h3.527l0.761-0.775v-1.572l-0.761-0.761h-3.527v3.108z"></path><path fill="#b2e82f" d="M56.736 31.36l-1.614-1.614v-4.736l1.614-1.614h5.109v1.205h-4.459l-0.9 0.9v3.755l0.9 0.9h4.459v1.205h-5.109z"></path><path fill="#b2e82f" d="M63.108 31.36v-1.116h3.708l0.306-0.306v-0.569l-0.306-0.32h-2.777l-1.003-0.988v-1.401l1.003-0.988h4.075v1.102h-3.47l-0.32 0.32v0.533l0.32 0.32h2.777l0.988 0.988v1.422l-0.988 1.003h-4.313z"></path></svg>