<svg xmlns="http://www.w3.org/2000/svg" width="39" height="32" viewBox="0 0 39 32"><title>Free-Shipping</title><path d="M38.929 16.271c-2.351-1.908-4.382-4.148-6.043-6.683l-1.452-2.203h-5.588v-3.692c0-2.031-1.662-3.692-3.692-3.692h-18.462c-2.031 0-3.692 1.662-3.692 3.692v19.692c0 2.031 1.662 3.692 3.692 3.692h1.231c0 2.72 2.203 4.923 4.923 4.923s4.923-2.203 4.923-4.923h12.308c0 2.72 2.203 4.923 4.923 4.923s4.923-2.203 4.923-4.923h2.462v-10.437l-0.455-0.369zM9.846 29.538c-1.354 0-2.462-1.108-2.462-2.462s1.108-2.462 2.462-2.462 2.462 1.108 2.462 2.462-1.108 2.462-2.462 2.462zM14.092 24.615c-0.849-1.465-2.425-2.462-4.246-2.462s-3.385 0.997-4.246 2.462h-1.908c-0.677 0-1.231-0.554-1.231-1.231v-19.692c0-0.677 0.554-1.231 1.231-1.231h18.462c0.677 0 1.231 0.554 1.231 1.231v20.923h-9.292zM32 29.538c-1.354 0-2.462-1.108-2.462-2.462s1.108-2.462 2.462-2.462 2.462 1.108 2.462 2.462-1.108 2.462-2.462 2.462zM36.923 24.615h-0.677c-0.849-1.465-2.425-2.462-4.246-2.462s-3.385 0.997-4.246 2.462h-1.908v-14.769h4.258l0.726 1.095c1.686 2.572 3.742 4.886 6.092 6.868v6.806z"></path></svg>