<svg xmlns="http://www.w3.org/2000/svg" width="37" height="32" viewBox="0 0 37 32"><title>fullscreenahead</title><path d="M14.96 4.064h-0.011c-1.12-1.643-1.984-2.293-3.125-2.293h-0.053v3.456c0.619-0.064 1.461-0.651 1.813-1.248h0.011v2.656h-0.011c-0.352-0.587-1.195-1.173-1.813-1.237v3.712h1.227v0.171h-4.427v-0.171h0.853v-6.933l-0.949-0.576h6.485v2.464z"></path><path d="M21.52 9.109v0.171h-2.667v-0.821c-0.704 0.512-1.312 0.939-1.909 0.939-0.96 0-1.376-0.555-1.376-1.824v-2.293l-0.608-0.523 2.741-0.96v3.349c0 0.896 0.075 1.248 0.608 1.248 0.171 0 0.363-0.043 0.544-0.107v-3.061l-0.608-0.523 2.741-0.96v5.365h0.533z"></path><path d="M21.915 9.109h0.533v-6.347l-0.608-0.523 2.741-0.96v7.827h0.533v0.171h-3.2v-0.168z"></path><path d="M25.509 9.109h0.533v-6.347l-0.608-0.523 2.741-0.96v7.827h0.533v0.171h-3.2v-0.168z"></path><path d="M1.659 19.733l0.629-2.731h0.011l1.483 2.795c0.235 0.096 0.363 0.107 0.555 0.107 0.757 0 1.312-0.501 1.312-1.184 0-0.512-0.277-0.949-0.896-1.28l-1.216-0.661c-0.992-0.544-1.579-1.269-1.579-2.347 0-1.333 0.981-2.379 2.72-2.379 0.832 0 1.589 0.117 2.421 0.469l-0.629 2.357h-0.011l-1.408-2.528c-0.213-0.053-0.309-0.064-0.523-0.064-0.544 0-1.013 0.395-1.013 0.981 0 0.469 0.267 0.885 1.056 1.355l1.397 0.843c0.896 0.533 1.408 1.184 1.408 2.155 0 1.472-1.237 2.539-3.019 2.539-0.907 0-1.835-0.139-2.699-0.427z"></path><path d="M8.016 17.387c0.011-1.568 1.131-2.88 2.944-2.88 0.608 0 1.141 0.085 1.835 0.341l-0.416 2.976h-0.011c-0.992-1.877-1.92-2.901-2.56-2.901-0.267 0-0.427 0.192-0.427 0.576 0 1.717 1.685 3.531 3.189 3.531 0.139 0 0.224-0.011 0.32-0.043l0.011 0.011c-0.48 0.725-1.259 1.056-2.208 1.056-1.451 0-2.688-1.024-2.677-2.667z"></path><path d="M18.043 14.528v2.827h-0.011c-1.109-1.227-1.611-1.504-1.984-1.44v3.861h0.8v0.171h-3.467v-0.171h0.533v-3.872l-0.608-0.523 2.741-0.917v1.333c0.608-0.8 1.301-1.301 1.792-1.301 0.075 0 0.139 0.011 0.203 0.032z"></path><path d="M23.589 18.987c-0.448 0.683-1.163 1.067-2.155 1.067-1.504 0-2.741-1.045-2.741-2.699 0-1.557 1.045-2.848 2.752-2.848 1.003 0 1.696 0.587 1.696 1.365 0 0.885-0.683 1.664-1.963 2.144 0.608 0.597 1.376 0.992 2.091 0.992 0.107 0 0.213-0.011 0.309-0.032l0.011 0.011zM20.016 15.509c0 0.885 0.459 1.781 1.099 2.443 0.299-0.384 0.416-0.811 0.416-1.355 0-0.928-0.619-1.717-1.077-1.717-0.277 0-0.437 0.235-0.437 0.629z"></path><path d="M28.752 18.987c-0.448 0.683-1.163 1.067-2.155 1.067-1.504 0-2.741-1.045-2.741-2.699 0-1.557 1.045-2.848 2.752-2.848 1.003 0 1.696 0.587 1.696 1.365 0 0.885-0.683 1.664-1.963 2.144 0.608 0.597 1.376 0.992 2.091 0.992 0.107 0 0.213-0.011 0.309-0.032l0.011 0.011zM25.179 15.509c0 0.885 0.459 1.781 1.099 2.443 0.299-0.384 0.416-0.811 0.416-1.355 0-0.928-0.619-1.717-1.077-1.717-0.277 0-0.437 0.235-0.437 0.629z"></path><path d="M35.675 19.776v0.171h-3.093v-0.171h0.427v-3.211c0-0.832-0.203-1.109-0.64-1.109-0.213 0-0.427 0.064-0.64 0.16v4.16h0.427v0.171h-3.093v-0.171h0.533v-3.893l-0.608-0.523 2.741-0.96v1.067c0.693-0.597 1.312-1.013 2.037-1.013 0.907 0 1.376 0.565 1.376 1.653v3.669h0.533z"></path><path d="M10.208 30.443v0.171h-3.925v-0.171h0.875l-0.843-2.005h-2.453l-0.651 2.005h1.099v0.171h-2.357v-0.171h0.437l3.392-7.723h0.555l3.381 7.723h0.491zM6.229 28.245l-1.312-3.093-1.003 3.093h2.315z"></path><path d="M17.024 30.443v0.171h-3.093v-0.171h0.427v-3.211c0-0.832-0.203-1.109-0.64-1.109-0.213 0-0.427 0.064-0.64 0.16v4.16h0.427v0.171h-3.093v-0.171h0.533v-6.347l-0.608-0.523 2.741-0.96v3.52c0.693-0.597 1.312-1.013 2.037-1.013 0.907 0 1.376 0.565 1.376 1.653v3.669h0.533z"></path><path d="M22.379 29.653c-0.448 0.683-1.163 1.067-2.155 1.067-1.504 0-2.741-1.045-2.741-2.699 0-1.557 1.045-2.848 2.752-2.848 1.003 0 1.696 0.587 1.696 1.365 0 0.885-0.683 1.664-1.963 2.144 0.608 0.597 1.376 0.992 2.091 0.992 0.107 0 0.213-0.011 0.309-0.032l0.011 0.011zM18.805 26.176c0 0.885 0.459 1.781 1.099 2.443 0.299-0.384 0.416-0.811 0.416-1.355 0-0.928-0.619-1.717-1.077-1.717-0.277 0-0.437 0.235-0.437 0.629z"></path><path d="M28.128 30.443v0.171h-2.667v-0.608c-0.501 0.427-1.067 0.715-1.653 0.715-0.693 0-1.163-0.395-1.163-1.067 0-0.981 1.045-1.632 2.816-1.824 0-1.173-0.469-1.76-1.28-1.76-0.48 0-0.811 0.128-1.173 0.405l-0.053-0.053c0.725-0.811 1.515-1.248 2.581-1.248 1.344 0 2.059 0.768 2.059 2.315v2.955h0.533zM25.461 29.856v-1.888c-0.64 0.181-0.885 0.587-0.885 1.152 0 0.501 0.213 0.768 0.64 0.768 0.064 0 0.149-0.011 0.245-0.032z"></path><path d="M35.008 30.443v0.171h-2.667v-0.843c-0.565 0.576-1.227 0.949-1.856 0.949-1.088 0-1.899-0.885-1.899-2.528 0-1.771 1.013-3.019 2.475-3.019 0.565 0 0.949 0.171 1.28 0.395v-1.472l-0.608-0.523 2.741-0.96v7.829h0.533zM32.341 29.621v-3.872c-0.149-0.107-0.341-0.16-0.523-0.16-0.555 0-0.949 0.672-0.949 1.995 0 1.429 0.309 2.144 1.024 2.144 0.16 0 0.299-0.043 0.448-0.107z"></path></svg>