<svg xmlns="http://www.w3.org/2000/svg" xmlns:xlink="http://www.w3.org/1999/xlink" viewBox="0 0 80 32"><path d="M26.12 13.267c-0.727 0-1.307-0.22-1.747-0.653-0.44-0.44-0.653-1.020-0.653-1.747v-6.4c0-0.727 0.22-1.307 0.653-1.747 0.44-0.44 1.020-0.653 1.747-0.653h6.080v2.080l-0.88 0.96h-3.92v5.12h1.6v-3.36h3.68v6.4h-6.56z"></path><path d="M42.92 4.147l-0.96 0.96h-3.84v1.12h3.2v2.88h-3.2v1.12h4.8v3.040h-8.48v-11.2h8.48v2.080z"></path><path d="M43.48 2.067h9.12v2.24l-0.96 0.96h-1.76v8h-3.68v-8h-2.72v-3.2z"></path><path d="M3.8 29.933v-11.2h3.68v11.2h-3.68z"></path><path d="M14.84 29.933l-1.92-4.96h-0.16l0.32 3.36v1.6h-3.68v-11.2h3.84l1.92 4.96h0.16l-0.32-3.36v-1.6h3.68v11.2h-3.84z"></path><path d="M20.12 21.133c0-0.727 0.22-1.307 0.653-1.747 0.44-0.44 1.020-0.653 1.747-0.653h6.080v2.080l-0.96 0.96h-3.84v0.72l2.88 0.56c0.64 0.127 1.173 0.413 1.6 0.867 0.427 0.447 0.64 1.013 0.64 1.693v1.92c0 0.727-0.22 1.307-0.653 1.747-0.44 0.44-1.020 0.653-1.747 0.653h-6.4v-3.040h5.12v-0.88l-2.88-0.56c-0.64-0.127-1.173-0.413-1.6-0.867s-0.64-1.013-0.64-1.693v-1.76z"></path><path d="M30.36 29.933v-11.2h6.72c0.727 0 1.307 0.22 1.747 0.653s0.653 1.020 0.653 1.747v3.36c0 0.727-0.22 1.307-0.653 1.747-0.44 0.44-1.020 0.653-1.747 0.653h-3.040v3.040h-3.68zM34.040 21.773v2.080h1.76v-2.080h-1.76z"></path><path d="M40.92 29.933v-11.2h3.68v11.2h-3.68z"></path><path d="M46.52 29.933v-11.2h6.72c0.727 0 1.307 0.22 1.747 0.653 0.44 0.44 0.653 1.020 0.653 1.747v2.72c0 0.36-0.067 0.667-0.2 0.913s-0.28 0.44-0.44 0.593c-0.193 0.173-0.407 0.307-0.64 0.413l1.6 2.56v1.6h-3.68l-1.36-3.68h-0.72v3.68h-3.68zM50.2 21.773v1.44h1.76v-1.44h-1.76z"></path><path d="M65.88 20.813l-0.96 0.96h-3.84v1.12h3.2v2.88h-3.2v1.12h4.8v3.040h-8.48v-11.2h8.48v2.080z"></path><path d="M76.2 27.533c0 0.727-0.22 1.307-0.653 1.747s-1.020 0.653-1.747 0.653h-6.56v-11.2h6.56c0.727 0 1.307 0.22 1.747 0.653s0.653 1.020 0.653 1.747v6.4zM70.92 21.773v5.12h1.6v-5.12h-1.6z"></path></svg>