<svg xmlns="http://www.w3.org/2000/svg" width="32" height="32" viewBox="0 0 32 32"><title>7-Customer-Service</title><path d="M29 12h-1c0-6.62-5.38-12-12-12s-12 5.38-12 12h-1c-1.65 0-3 1.35-3 3v5c0 1.65 1.35 3 3 3s3-1.35 3-3v-8c0-5.51 4.49-10 10-10s10 4.49 10 10v11c0 2.76-2.24 5-5 5h-1.18c-0.41-1.16-1.51-2-2.82-2h-2c-1.65 0-3 1.35-3 3s1.35 3 3 3h2c1.3 0 2.4-0.84 2.82-2h1.18c3.86 0 7-3.14 7-7v-0.18c0.31 0.11 0.65 0.18 1 0.18 1.65 0 3-1.35 3-3v-5c0-1.65-1.35-3-3-3zM4 20c0 0.55-0.45 1-1 1s-1-0.45-1-1v-5c0-0.55 0.45-1 1-1h1v6zM17 30h-2c-0.55 0-1-0.45-1-1s0.45-1 1-1h2c0.55 0 1 0.45 1 1s-0.45 1-1 1zM30 20c0 0.55-0.45 1-1 1s-1-0.45-1-1v-6h1c0.55 0 1 0.45 1 1v5z"></path><path d="M21.69 21.72l-1.39-1.44c-2.37 2.29-6.24 2.29-8.61 0l-1.39 1.44c1.57 1.52 3.63 2.27 5.69 2.27 2.070 0 4.13-0.75 5.7-2.27z"></path></svg>