<svg xmlns="http://www.w3.org/2000/svg" width="32" height="32" viewBox="0 0 32 32"><title>laptop-computer-xl</title><path opacity="0.12" d="M18.222 29.778h-4.444c-0.489 0-0.889-0.4-0.889-0.889v-4.444h6.222v4.444c0 0.489-0.4 0.889-0.889 0.889z"></path><path d="M28.889 24.889h-25.778c-0.733 0-1.333-0.6-1.333-1.333v-20.444c0-0.733 0.6-1.333 1.333-1.333h25.778c0.733 0 1.333 0.6 1.333 1.333v20.444c0 0.733-0.6 1.333-1.333 1.333zM3.111 2.667c-0.244 0-0.444 0.2-0.444 0.444v20.444c0 0.244 0.2 0.444 0.444 0.444h25.778c0.244 0 0.444-0.2 0.444-0.444v-20.444c0-0.244-0.2-0.444-0.444-0.444h-25.778z"></path><path d="M28.444 20.444h-24.889v-16h24.889v16zM4.444 19.556h23.111v-14.222h-23.111v14.222z"></path><path opacity="0.12" d="M28.742 24.444h-25.484c-0.573 0-1.036-0.462-1.036-1.036v-20.151c0-0.573 0.462-1.036 1.036-1.036h25.48c0.578 0 1.040 0.462 1.040 1.036v20.147c0 0.578-0.462 1.040-1.036 1.040zM5.036 20h21.924c0.573 0 1.036-0.462 1.036-1.036v-13.040c0-0.573-0.462-1.036-1.036-1.036h-21.924c-0.573 0-1.036 0.462-1.036 1.036v13.036c0 0.578 0.462 1.040 1.036 1.040z"></path><path d="M16.444 3.556c0 0.245-0.199 0.444-0.444 0.444s-0.444-0.199-0.444-0.444c0-0.245 0.199-0.444 0.444-0.444s0.444 0.199 0.444 0.444z"></path><path d="M18.222 30.2h-4.444c-0.724 0-1.311-0.591-1.311-1.311v-4.867h7.071v4.867c-0.004 0.724-0.591 1.311-1.316 1.311zM13.311 24.867v4.022c0 0.258 0.209 0.467 0.467 0.467h4.444c0.258 0 0.467-0.209 0.467-0.467v-4.022h-5.378z"></path><path d="M12.889 27.524h6.222v0.849h-6.222v-0.849z"></path><path d="M12.387 9.253c0.111 0.071 0.324 0.133 0.516 0.133 0.604 0 0.929-0.364 0.956-0.907-0.107 0.187-0.36 0.333-0.702 0.333-0.52 0-0.996-0.356-0.996-0.969 0-0.596 0.48-1.004 1.084-1.004 0.6 0 1.138 0.427 1.138 1.347 0 1.044-0.498 1.667-1.476 1.667-0.236 0-0.52-0.067-0.667-0.164l0.147-0.436zM13.231 7.293c-0.293 0-0.551 0.209-0.551 0.533 0 0.338 0.253 0.538 0.551 0.538 0.289 0 0.551-0.209 0.551-0.538 0-0.32-0.262-0.533-0.551-0.533z"></path><path d="M15.253 7.596c0.196 0 0.36 0.16 0.36 0.36 0 0.196-0.164 0.356-0.36 0.356-0.2 0-0.36-0.16-0.36-0.356 0-0.2 0.16-0.36 0.36-0.36zM15.258 9.098c0.196 0 0.36 0.16 0.36 0.36 0 0.196-0.164 0.356-0.36 0.356-0.2 0-0.36-0.16-0.36-0.356 0-0.2 0.16-0.36 0.36-0.36z"></path><path d="M16.071 8.578l1.227-1.671h0.684v1.778h0.484v0.471h-0.484v0.631h-0.524v-0.631h-1.387v-0.578zM17.453 7.444l-0.907 1.24h0.907v-1.24z"></path><path d="M19.32 9.787v-1.973h-0.698v-0.364c0.413-0.009 0.698-0.24 0.76-0.542h0.462v2.88h-0.524z"></path></svg>