<svg xmlns="http://www.w3.org/2000/svg" width="32" height="32" viewBox="0 0 32 32"><title>networking-xl</title><path opacity="0.24" d="M12.889 19.556h-2.667v-11.556c0-0.489 0.4-0.889 0.889-0.889v0c0.489 0 0.889 0.4 0.889 0.889v1.778l0.889 3.556v6.222z"></path><path opacity="0.24" d="M14.222 21.333h-5.333v-0.889c0-0.489 0.4-0.889 0.889-0.889h3.556c0.489 0 0.889 0.4 0.889 0.889v0.889z"></path><path d="M28 28.889h-24c-1.227 0-2.222-0.996-2.222-2.222v-3.556c0-1.227 0.996-2.222 2.222-2.222h24c1.227 0 2.222 0.996 2.222 2.222v3.556c0 1.227-0.996 2.222-2.222 2.222zM4 21.778c-0.733 0-1.333 0.6-1.333 1.333v3.556c0 0.733 0.6 1.333 1.333 1.333h24c0.733 0 1.333-0.6 1.333-1.333v-3.556c0-0.733-0.6-1.333-1.333-1.333h-24z"></path><path d="M10.667 30.222h-3.556c-0.244 0-0.444-0.2-0.444-0.444s0.2-0.444 0.444-0.444h3.556c0.244 0 0.444 0.2 0.444 0.444s-0.2 0.444-0.444 0.444z"></path><path d="M24.889 30.222h-3.556c-0.244 0-0.444-0.2-0.444-0.444s0.2-0.444 0.444-0.444h3.556c0.244 0 0.444 0.2 0.444 0.444s-0.2 0.444-0.444 0.444z"></path><path d="M13.333 20h-3.556v-12c0-0.733 0.6-1.333 1.333-1.333s1.333 0.6 1.333 1.333v1.28c0 1.178 0.147 2.36 0.431 3.502 0.302 1.213 0.458 2.467 0.458 3.72v3.498zM10.667 19.111h1.778v-2.613c0-1.178-0.147-2.36-0.431-3.502-0.302-1.213-0.458-2.467-0.458-3.716v-1.28c0-0.244-0.2-0.444-0.444-0.444s-0.444 0.2-0.444 0.444v11.111z"></path><path d="M14.667 21.778h-6.222v-1.333c0-0.733 0.6-1.333 1.333-1.333h3.556c0.733 0 1.333 0.6 1.333 1.333v1.333zM9.333 20.889h4.444v-0.444c0-0.244-0.2-0.444-0.444-0.444h-3.556c-0.244 0-0.444 0.2-0.444 0.444v0.444z"></path><path d="M6.084 13.449c-0.107 0-0.218-0.040-0.298-0.124-1.422-1.422-2.204-3.316-2.204-5.329s0.782-3.902 2.204-5.329c0.164-0.164 0.431-0.164 0.596 0s0.164 0.431 0 0.596c-1.262 1.271-1.96 2.951-1.96 4.738s0.698 3.467 1.96 4.729c0.164 0.164 0.164 0.431 0 0.596-0.084 0.084-0.191 0.124-0.298 0.124z"></path><path d="M16.138 13.449c-0.107 0-0.218-0.040-0.298-0.124-0.164-0.164-0.164-0.431 0-0.596 1.262-1.262 1.96-2.942 1.96-4.729s-0.698-3.467-1.96-4.729c-0.164-0.164-0.164-0.431 0-0.596s0.431-0.164 0.596 0c1.422 1.422 2.209 3.316 2.209 5.329s-0.782 3.902-2.209 5.329c-0.080 0.076-0.187 0.116-0.298 0.116z"></path><path d="M7.969 11.587c-0.116 0-0.227-0.044-0.316-0.129-1.907-1.907-1.907-5.009 0-6.916 0.173-0.173 0.453-0.173 0.627 0s0.173 0.453 0 0.627c-1.56 1.56-1.56 4.098 0 5.658 0.173 0.173 0.173 0.453 0 0.627-0.084 0.089-0.2 0.133-0.311 0.133z"></path><path d="M14.253 11.587c-0.116 0-0.227-0.044-0.316-0.129-0.173-0.173-0.173-0.453 0-0.627 1.56-1.56 1.56-4.098 0-5.658-0.173-0.173-0.173-0.453 0-0.627s0.453-0.173 0.627 0c1.907 1.907 1.907 5.009 0 6.916-0.084 0.080-0.196 0.124-0.311 0.124z"></path><path d="M6.222 26.667c-0.982 0-1.778-0.796-1.778-1.778s0.796-1.778 1.778-1.778 1.778 0.796 1.778 1.778-0.796 1.778-1.778 1.778zM6.222 24c-0.489 0-0.889 0.4-0.889 0.889s0.4 0.889 0.889 0.889 0.889-0.4 0.889-0.889-0.4-0.889-0.889-0.889z"></path><path opacity="0.24" d="M7.556 24.889c0 0.736-0.597 1.333-1.333 1.333s-1.333-0.597-1.333-1.333c0-0.736 0.597-1.333 1.333-1.333s1.333 0.597 1.333 1.333z"></path><path opacity="0.24" d="M27.556 24.889c0 0.245-0.199 0.444-0.444 0.444s-0.444-0.199-0.444-0.444c0-0.245 0.199-0.444 0.444-0.444s0.444 0.199 0.444 0.444z"></path><path d="M25.778 24.889c0 0.245-0.199 0.444-0.444 0.444s-0.444-0.199-0.444-0.444c0-0.245 0.199-0.444 0.444-0.444s0.444 0.199 0.444 0.444z"></path><path d="M24 24.889c0 0.245-0.199 0.444-0.444 0.444s-0.444-0.199-0.444-0.444c0-0.245 0.199-0.444 0.444-0.444s0.444 0.199 0.444 0.444z"></path><path opacity="0.24" d="M22.222 24.889c0 0.245-0.199 0.444-0.444 0.444s-0.444-0.199-0.444-0.444c0-0.245 0.199-0.444 0.444-0.444s0.444 0.199 0.444 0.444z"></path><path d="M20.444 24.889c0 0.245-0.199 0.444-0.444 0.444s-0.444-0.199-0.444-0.444c0-0.245 0.199-0.444 0.444-0.444s0.444 0.199 0.444 0.444z"></path></svg>