<svg xmlns="http://www.w3.org/2000/svg" width="84" height="32" viewBox="0 0 84 32"><title>sl-1-tit</title><path fill="#fff38f" d="M16.344 15.156c-0.32 0-0.48-0.136-0.48-0.404v-0.076c0-0.168 0.132-0.424 0.392-0.776 0.264-0.352 0.392-0.7 0.392-1.048v-9.024c0-0.344-0.132-0.696-0.392-1.048-0.264-0.352-0.392-0.612-0.392-0.776v-0.080c0-0.268 0.16-0.404 0.48-0.404h9.256c0.232 0 0.396 0.052 0.5 0.152 0.104 0.104 0.172 0.268 0.212 0.5l0.46 2.572c0.024 0.18-0.012 0.324-0.116 0.432s-0.244 0.164-0.424 0.164h-0.116c-0.268 0-0.536-0.12-0.808-0.364-0.268-0.244-0.504-0.508-0.7-0.796-0.2-0.288-0.452-0.552-0.76-0.796s-0.62-0.364-0.94-0.364h-1.304c-0.64 0-0.96 0.332-0.96 1v3.992h1.804c0.268 0 0.512-0.14 0.728-0.424 0.216-0.28 0.416-0.56 0.596-0.836s0.344-0.412 0.5-0.412h0.192c0.268 0 0.404 0.16 0.404 0.48v3.744c0 0.32-0.136 0.48-0.404 0.48h-0.192c-0.152 0-0.32-0.128-0.5-0.384s-0.376-0.516-0.596-0.776c-0.216-0.264-0.46-0.392-0.728-0.392h-1.804v3.36c0 0.344 0.148 0.696 0.44 1.048 0.296 0.352 0.44 0.612 0.44 0.776v0.076c0 0.268-0.16 0.404-0.48 0.404 0 0-4.7 0-4.7 0z"></path><path fill="#fff38f" d="M27.748 15.156c-0.32 0-0.48-0.136-0.48-0.404v-0.076c0-0.168 0.132-0.424 0.392-0.776 0.264-0.352 0.392-0.7 0.392-1.048v-8.24c0-0.344-0.132-0.688-0.392-1.028-0.264-0.34-0.392-0.58-0.392-0.72v-0.076c0-0.168 0.16-0.328 0.48-0.48l3.284-1.612c0.28-0.128 0.508-0.14 0.68-0.040 0.172 0.104 0.26 0.264 0.26 0.48v11.712c0 0.344 0.148 0.696 0.44 1.048 0.296 0.352 0.44 0.612 0.44 0.776v0.076c0 0.268-0.16 0.404-0.48 0.404l-4.624 0.004z"></path><path fill="#fff38f" d="M42.996 12.908c0.040 0.32 0.112 0.58 0.22 0.776 0.108 0.2 0.216 0.328 0.316 0.384s0.196 0.128 0.28 0.212 0.124 0.184 0.124 0.296c0 0.46-0.8 0.692-2.4 0.692-1.164 0-1.824-0.28-1.976-0.844-0.5 0.616-1.288 0.92-2.36 0.92s-1.952-0.248-2.632-0.74c-0.68-0.492-1.016-1.22-1.016-2.18 0-0.936 0.332-1.66 1-2.18 0.664-0.52 1.48-0.776 2.44-0.776 0.728 0 1.344 0.14 1.844 0.424-0.152-1.472-0.28-2.344-0.384-2.612-0.14-0.36-0.384-0.536-0.728-0.536-0.244 0-0.44 0.136-0.596 0.412-0.152 0.276-0.264 0.584-0.336 0.92-0.072 0.34-0.232 0.648-0.488 0.92-0.256 0.276-0.596 0.412-1.016 0.412-0.448 0-0.812-0.128-1.096-0.384-0.28-0.256-0.424-0.588-0.424-1 0-0.536 0.2-0.984 0.604-1.344s0.888-0.604 1.46-0.74c0.568-0.136 1.2-0.2 1.892-0.2 1.32 0 2.416 0.348 3.292 1.048 0.876 0.696 1.392 1.628 1.544 2.792l0.436 3.328zM38.424 14.272c0.232 0 0.408-0.136 0.536-0.404s0.18-0.552 0.152-0.844l-0.072-0.904c-0.128-1.024-0.44-1.536-0.94-1.536-0.192 0-0.348 0.104-0.472 0.308-0.12 0.204-0.184 0.468-0.184 0.788 0 0.728 0.088 1.344 0.26 1.844 0.172 0.496 0.412 0.748 0.72 0.748z"></path><path fill="#fff38f" d="M48.64 15.328c-1.24 0-2.268-0.2-3.080-0.604s-1.22-0.956-1.22-1.66c0-0.46 0.14-0.804 0.424-1.028 0.28-0.224 0.648-0.336 1.096-0.336 0.472 0 0.856 0.14 1.144 0.424 0.288 0.28 0.472 0.592 0.556 0.932s0.212 0.648 0.384 0.932c0.172 0.28 0.408 0.424 0.7 0.424 0.5 0 0.748-0.296 0.748-0.884 0-0.448-0.168-0.808-0.508-1.084s-0.748-0.488-1.22-0.632c-0.472-0.148-0.952-0.312-1.432-0.5-0.48-0.184-0.888-0.488-1.228-0.912s-0.508-0.972-0.508-1.652c0-0.884 0.384-1.604 1.152-2.16s1.772-0.836 3.016-0.836c1.216 0 2.208 0.22 2.976 0.664s1.152 0.996 1.152 1.66c0 0.36-0.14 0.664-0.424 0.92-0.28 0.256-0.628 0.384-1.036 0.384-0.384 0-0.7-0.092-0.94-0.28-0.244-0.184-0.416-0.408-0.52-0.664s-0.192-0.516-0.268-0.776c-0.076-0.264-0.168-0.488-0.28-0.672-0.108-0.184-0.26-0.28-0.452-0.28-0.408 0-0.616 0.312-0.616 0.94 0 0.488 0.16 0.88 0.48 1.18s0.708 0.532 1.16 0.692c0.452 0.16 0.908 0.328 1.364 0.508s0.84 0.472 1.16 0.872c0.32 0.404 0.48 0.92 0.48 1.544 0 0.844-0.376 1.536-1.132 2.072-0.756 0.544-1.796 0.812-3.128 0.812z"></path><path fill="#fff38f" d="M64.308 12.852c0.024 0.332 0.148 0.676 0.364 1.028s0.328 0.616 0.328 0.796v0.076c0 0.268-0.16 0.404-0.48 0.404h-4.244c-0.32 0-0.48-0.136-0.48-0.404v-0.076c0-0.168 0.12-0.424 0.364-0.776s0.352-0.7 0.328-1.048l-0.192-3.496c-0.052-0.82-0.152-1.392-0.296-1.72s-0.4-0.488-0.76-0.488c-0.628 0-0.94 0.552-0.94 1.652v4.052c0 0.344 0.148 0.696 0.44 1.048 0.296 0.352 0.44 0.612 0.44 0.776v0.076c0 0.268-0.16 0.404-0.48 0.404h-4.628c-0.32 0-0.48-0.136-0.48-0.404v-0.076c0-0.168 0.148-0.424 0.44-0.776 0.296-0.352 0.44-0.7 0.44-1.048v-8.392c0-0.268-0.080-0.496-0.24-0.68s-0.324-0.352-0.488-0.5c-0.168-0.148-0.248-0.296-0.248-0.452v-0.076c0-0.244 0.16-0.44 0.48-0.596l3.416-1.496c0.244-0.104 0.436-0.12 0.576-0.048s0.212 0.228 0.212 0.472v5.416c0.564-0.5 1.3-0.748 2.208-0.748 0.932 0 1.752 0.292 2.448 0.872 0.696 0.584 1.096 1.54 1.2 2.872l0.272 3.356z"></path><path fill="#fff38f" d="M27.316 31.348c-1.676 0-3.080-0.348-4.216-1.048s-1.7-1.52-1.7-2.468c0-1.024 0.512-1.536 1.536-1.536 0.408 0 0.76 0.124 1.056 0.376 0.296 0.248 0.544 0.552 0.748 0.912s0.412 0.716 0.624 1.076c0.212 0.36 0.492 0.664 0.844 0.912s0.772 0.376 1.256 0.376c0.472 0 0.84-0.116 1.104-0.344 0.264-0.232 0.392-0.552 0.392-0.96 0-0.46-0.136-0.856-0.404-1.18-0.268-0.328-0.62-0.584-1.056-0.768s-0.916-0.36-1.44-0.52c-0.524-0.16-1.048-0.344-1.564-0.556-0.52-0.212-0.996-0.468-1.432-0.768s-0.792-0.728-1.064-1.276c-0.276-0.552-0.412-1.204-0.412-1.96 0-1.28 0.488-2.312 1.468-3.092s2.264-1.172 3.848-1.172c1.548 0 2.88 0.352 3.992 1.056s1.664 1.524 1.652 2.46c0 0.488-0.136 0.872-0.412 1.152s-0.68 0.424-1.22 0.424c-0.472 0-0.872-0.128-1.2-0.384s-0.58-0.564-0.76-0.92c-0.18-0.36-0.356-0.72-0.528-1.084s-0.392-0.676-0.652-0.932c-0.264-0.256-0.58-0.384-0.952-0.384-0.488 0-0.852 0.132-1.096 0.392-0.244 0.264-0.364 0.612-0.364 1.048 0 0.552 0.136 1.016 0.404 1.4s0.616 0.68 1.048 0.892c0.428 0.212 0.904 0.4 1.432 0.568 0.524 0.168 1.048 0.352 1.564 0.556 0.52 0.204 0.992 0.444 1.42 0.72s0.776 0.668 1.048 1.172c0.268 0.504 0.404 1.116 0.404 1.832 0 1.256-0.516 2.24-1.544 2.956-1.024 0.712-2.3 1.072-3.824 1.072z"></path><path fill="#fff38f" d="M42.984 28.908c0.040 0.32 0.112 0.58 0.22 0.776s0.216 0.328 0.316 0.384c0.104 0.056 0.196 0.128 0.28 0.212s0.124 0.184 0.124 0.296c0 0.46-0.8 0.692-2.4 0.692-1.164 0-1.824-0.28-1.976-0.844-0.5 0.616-1.288 0.92-2.36 0.92s-1.952-0.248-2.632-0.74c-0.68-0.492-1.016-1.22-1.016-2.18 0-0.932 0.332-1.66 1-2.18 0.664-0.52 1.48-0.776 2.44-0.776 0.728 0 1.344 0.14 1.844 0.424-0.152-1.472-0.28-2.344-0.384-2.612-0.14-0.36-0.384-0.536-0.728-0.536-0.244 0-0.44 0.136-0.596 0.412-0.152 0.276-0.264 0.584-0.336 0.92-0.072 0.34-0.232 0.648-0.488 0.92-0.256 0.276-0.596 0.412-1.016 0.412-0.448 0-0.812-0.128-1.096-0.384-0.28-0.256-0.424-0.588-0.424-1 0-0.536 0.2-0.984 0.604-1.344s0.888-0.604 1.46-0.74c0.568-0.136 1.2-0.2 1.892-0.2 1.32 0 2.416 0.348 3.292 1.048s1.392 1.628 1.548 2.792l0.432 3.328zM38.416 30.272c0.232 0 0.408-0.136 0.536-0.404s0.18-0.552 0.152-0.844l-0.076-0.904c-0.128-1.024-0.44-1.536-0.94-1.536-0.192 0-0.348 0.104-0.472 0.308-0.12 0.204-0.184 0.468-0.184 0.788 0 0.728 0.088 1.344 0.26 1.844 0.176 0.496 0.416 0.748 0.724 0.748z"></path><path fill="#fff38f" d="M44.712 31.156c-0.32 0-0.48-0.136-0.48-0.404v-0.076c0-0.168 0.132-0.424 0.392-0.776 0.264-0.352 0.392-0.7 0.392-1.048v-8.24c0-0.344-0.132-0.688-0.392-1.028-0.264-0.34-0.392-0.58-0.392-0.72v-0.076c0-0.168 0.16-0.328 0.48-0.48l3.284-1.612c0.28-0.128 0.508-0.14 0.68-0.040 0.172 0.104 0.26 0.264 0.26 0.48v11.712c0 0.344 0.148 0.696 0.44 1.048s0.44 0.612 0.44 0.776v0.076c0 0.268-0.16 0.404-0.48 0.404l-4.624 0.004z"></path><path fill="#fff38f" d="M58.42 28.044c0.14-0.152 0.3-0.2 0.48-0.136s0.268 0.204 0.268 0.424c0 0.64-0.36 1.304-1.084 1.988s-1.66 1.028-2.812 1.028c-1.432 0-2.596-0.448-3.484-1.344s-1.336-2.068-1.336-3.512c0-1.396 0.472-2.536 1.412-3.416 0.94-0.884 2.056-1.324 3.352-1.324 1.176 0 2.088 0.264 2.736 0.788s0.968 1.112 0.968 1.768c0 0.472-0.216 0.852-0.652 1.132l-3.476 2.264c0.5 0.64 1.14 0.96 1.92 0.96 0.732-0.004 1.3-0.212 1.708-0.62zM54.908 22.784c-0.308 0-0.552 0.152-0.74 0.46-0.184 0.308-0.28 0.672-0.28 1.096 0 0.872 0.116 1.632 0.344 2.284l1.228-0.904c0.332-0.244 0.5-0.596 0.5-1.056 0-0.168-0.012-0.344-0.040-0.528-0.024-0.184-0.072-0.388-0.144-0.604s-0.184-0.396-0.336-0.536c-0.148-0.144-0.328-0.212-0.532-0.212z"></path><path fill="#fff38f" d="M12.256 17.236c-0.036 0-0.072-0.004-0.108-0.016l-10.848-3c-0.212-0.060-0.336-0.28-0.28-0.492 0.060-0.212 0.28-0.336 0.492-0.28l10.848 3c0.212 0.060 0.336 0.28 0.28 0.492-0.048 0.18-0.212 0.296-0.384 0.296z"></path><path fill="#fff38f" d="M11.108 13.532c-0.080 0-0.164-0.024-0.236-0.076l-7.144-5.204c-0.18-0.132-0.216-0.38-0.088-0.56s0.38-0.216 0.56-0.088l7.144 5.204c0.18 0.128 0.216 0.38 0.088 0.56-0.080 0.108-0.2 0.164-0.324 0.164z"></path><path fill="#fff38f" d="M4.936 23.676c-0.124 0-0.248-0.056-0.324-0.168-0.128-0.18-0.088-0.428 0.092-0.56l4.672-3.348c0.18-0.128 0.428-0.088 0.56 0.092s0.088 0.428-0.092 0.56l-4.676 3.348c-0.072 0.052-0.152 0.076-0.232 0.076z"></path><path fill="#fff38f" d="M14.508 30.388c-0.14 0-0.276-0.064-0.368-0.176-0.232-0.284-0.144-0.72 0.036-1.58 0.136-0.656 0.308-1.476 0.328-2.288 0-0.020 0-0.036 0-0.048-0.080 0.004-0.232 0.024-0.328 0.036-0.328 0.056-0.872 0.144-1.080-0.348v0c-0.34-0.804 0.368-3.724 0.848-4.88 0.228-0.548 0.432-0.828 0.68-0.924 0.68-0.272 1.968-0.316 2.62 0.316 0.372 0.36 0.112 0.94-0.248 1.74-0.156 0.352-0.436 0.968-0.448 1.236 0.080 0.004 0.196-0.004 0.272-0.012 0.34-0.024 0.76-0.052 0.98 0.288s0.036 0.776-0.148 1.12c-0.188 0.348-0.488 1-0.804 1.688-1.444 3.128-1.828 3.772-2.28 3.828-0.020 0.004-0.040 0.004-0.060 0.004zM14.488 25.496c0.196 0 0.392 0.040 0.556 0.184 0.176 0.156 0.264 0.384 0.256 0.684-0.020 0.784-0.16 1.54-0.292 2.18 0.376-0.74 0.816-1.688 1.108-2.324 0.336-0.728 0.628-1.36 0.828-1.728 0.056-0.104 0.092-0.184 0.116-0.244-0.064 0-0.132 0.008-0.184 0.012-0.332 0.024-0.888 0.064-1.072-0.42-0.188-0.496 0.128-1.192 0.46-1.932 0.128-0.288 0.316-0.704 0.352-0.896-0.38-0.272-1.184-0.284-1.668-0.1-0.456 0.436-1.276 3.856-1.144 4.664 0.072-0.004 0.168-0.020 0.24-0.032 0.14-0.024 0.292-0.048 0.444-0.048zM14.496 26.252v0 0zM14.964 20.9v0z"></path><path fill="#fff38f" d="M64.504 28.204c-0.124 0-0.244-0.044-0.336-0.132-0.308-0.284-0.184-0.74 0.024-1.488 0.156-0.568 0.352-1.276 0.372-1.972-0.080-0.084-0.46-0.044-0.64-0.024-0.328 0.036-0.64 0.068-0.872-0.104-0.252-0.188-0.716-0.54 1.128-3.416 1.984-3.092 2.38-2.876 2.616-2.748 0.34 0.184 0.272 0.528 0.084 1.448-0.108 0.536-0.4 1.968-0.196 2.216 0.060 0.040 0.352 0.028 0.508 0.024 0.352-0.012 0.752-0.028 1.016 0.236 0.396 0.396-0.008 0.964-0.14 1.152-0.216 0.304-0.564 0.872-0.932 1.472-1.496 2.444-2.076 3.268-2.564 3.336-0.020 0-0.044 0-0.068 0zM64.324 23.756c0.28 0 0.564 0.052 0.784 0.252 0.176 0.16 0.268 0.384 0.26 0.628-0.024 0.78-0.228 1.528-0.396 2.132 0.472-0.664 1.092-1.68 1.488-2.324 0.392-0.64 0.728-1.192 0.96-1.516 0.036-0.052 0.064-0.092 0.084-0.128-0.088 0-0.2 0.004-0.28 0.008-0.336 0.012-0.72 0.024-1.008-0.18-0.576-0.412-0.428-1.468-0.136-2.92-0.92 1.168-2.232 3.412-2.432 4.104 0.064-0.004 0.136-0.012 0.192-0.020 0.152-0.016 0.316-0.036 0.484-0.036zM63.476 23.816v0 0z"></path><path fill="#fff38f" d="M68.228 16.268c-0.208 0-0.384-0.16-0.4-0.372-0.016-0.22 0.148-0.412 0.368-0.428l14.352-1.060c0.216-0.016 0.412 0.148 0.428 0.368s-0.148 0.412-0.368 0.428l-14.352 1.060c-0.008 0.004-0.020 0.004-0.028 0.004z"></path><path fill="#fff38f" d="M78.232 23.148c-0.052 0-0.1-0.008-0.152-0.028l-6.944-2.844c-0.204-0.084-0.304-0.316-0.22-0.52s0.32-0.3 0.52-0.22l6.944 2.844c0.204 0.084 0.304 0.316 0.22 0.52-0.060 0.152-0.208 0.248-0.368 0.248z"></path><path fill="#fff38f" d="M68.096 13.292c-0.112 0-0.224-0.048-0.304-0.14-0.144-0.168-0.124-0.42 0.044-0.564l5.356-4.564c0.168-0.144 0.42-0.124 0.564 0.044s0.124 0.42-0.044 0.564l-5.356 4.564c-0.076 0.064-0.168 0.096-0.26 0.096z"></path></svg>