<svg xmlns="http://www.w3.org/2000/svg" width="32" height="32" viewBox="0 0 32 32"><title>TVs-Video-xl</title><path d="M29.778 25.778h-27.556c-0.733 0-1.333-0.6-1.333-1.333v-18.667c0-0.733 0.6-1.333 1.333-1.333h27.556c0.733 0 1.333 0.6 1.333 1.333v18.667c0 0.733-0.6 1.333-1.333 1.333zM2.222 5.333c-0.244 0-0.444 0.2-0.444 0.444v18.667c0 0.244 0.2 0.444 0.444 0.444h27.556c0.244 0 0.444-0.2 0.444-0.444v-18.667c0-0.244-0.2-0.444-0.444-0.444h-27.556z"></path><path d="M29.333 24h-26.667v-17.778h26.667v17.778zM3.556 23.111h24.889v-16h-24.889v16z"></path><path opacity="0.12" d="M30.667 25.333h-29.333v-20.444h29.333v20.444zM3.111 23.556h25.778v-16.889h-25.778v16.889z"></path><path d="M17.333 26.222h-2.667c-0.244 0-0.444-0.2-0.444-0.444v-0.444h3.556v0.444c0 0.244-0.2 0.444-0.444 0.444z"></path><path d="M5.333 27.556c-0.116 0-0.227-0.044-0.316-0.129-0.173-0.173-0.173-0.453 0-0.627l1.778-1.778c0.173-0.173 0.453-0.173 0.627 0s0.173 0.453 0 0.627l-1.778 1.778c-0.084 0.084-0.196 0.129-0.311 0.129z"></path><path d="M8.889 27.556c-0.116 0-0.227-0.044-0.316-0.129l-1.778-1.778c-0.173-0.173-0.173-0.453 0-0.627s0.453-0.173 0.627 0l1.778 1.778c0.173 0.173 0.173 0.453 0 0.627-0.084 0.084-0.196 0.129-0.311 0.129z"></path><path d="M23.111 27.556c-0.116 0-0.227-0.044-0.316-0.129-0.173-0.173-0.173-0.453 0-0.627l1.778-1.778c0.173-0.173 0.453-0.173 0.627 0s0.173 0.453 0 0.627l-1.778 1.778c-0.084 0.084-0.196 0.129-0.311 0.129z"></path><path d="M26.667 27.556c-0.116 0-0.227-0.044-0.316-0.129l-1.778-1.778c-0.173-0.173-0.173-0.453 0-0.627s0.453-0.173 0.627 0l1.778 1.778c0.173 0.173 0.173 0.453 0 0.627-0.084 0.084-0.196 0.129-0.311 0.129z"></path><path d="M5.244 10.871l1.44-1.889h1v2.036h0.556v0.702h-0.551v0.724h-0.844v-0.72h-1.6v-0.853zM6.844 9.88l-0.871 1.142h0.871v-1.142z"></path><path d="M9.862 11.080l-0.391 0.436v0.929h-0.773v-3.467h0.773v1.458l1.267-1.458h1.018l-1.351 1.502 1.356 1.964h-0.964l-0.933-1.364z"></path></svg>