<svg xmlns="http://www.w3.org/2000/svg" width="32" height="32" viewBox="0 0 32 32"><title>wearabletech-xl</title><path opacity="0.24" d="M21.333 8h-10.667c-1.471 0-2.667 1.196-2.667 2.667v10.667c0 1.471 1.196 2.667 2.667 2.667h10.667c1.471 0 2.667-1.196 2.667-2.667v-10.667c0-1.471-1.196-2.667-2.667-2.667zM22.222 21.333l-0.889 0.889h-10.667l-0.889-0.889v-10.667l0.889-0.889h10.667l0.889 0.889v10.667z"></path><path d="M23.556 14.222v-1.778c0-0.489 0.4-0.889 0.889-0.889v0c0.489 0 0.889 0.4 0.889 0.889v1.778c0 0.489-0.4 0.889-0.889 0.889v0c-0.489 0-0.889-0.4-0.889-0.889z"></path><path d="M24 20.444v-3.556c0-0.244 0.2-0.444 0.444-0.444v0c0.244 0 0.444 0.2 0.444 0.444v3.556c0 0.244-0.2 0.444-0.444 0.444v0c-0.244 0-0.444-0.2-0.444-0.444z"></path><path d="M21.333 24.444h-10.667c-1.716 0-3.111-1.396-3.111-3.111v-10.667c0-1.716 1.396-3.111 3.111-3.111h10.667c1.716 0 3.111 1.396 3.111 3.111v10.667c0 1.716-1.396 3.111-3.111 3.111zM10.667 8.444c-1.227 0-2.222 0.996-2.222 2.222v10.667c0 1.227 0.996 2.222 2.222 2.222h10.667c1.227 0 2.222-0.996 2.222-2.222v-10.667c0-1.227-0.996-2.222-2.222-2.222h-10.667z"></path><path d="M22.222 8.627l-0.316-0.316c-1.231-1.227-1.907-2.862-1.907-4.604 0-0.418-0.262-0.778-0.658-0.907-2.218-0.378-4.467-0.378-6.684 0-0.396 0.129-0.658 0.493-0.658 0.907 0 1.742-0.676 3.378-1.907 4.604l-0.316 0.316-0.627-0.627 0.316-0.316c1.058-1.062 1.644-2.476 1.644-3.978 0-0.822 0.529-1.529 1.316-1.764l0.053-0.013c2.338-0.4 4.707-0.4 7.044 0l0.053 0.013c0.782 0.236 1.311 0.947 1.311 1.764 0 1.502 0.587 2.916 1.649 3.978l0.311 0.316-0.627 0.627z"></path><path opacity="0.12" d="M9.778 8c1.138-1.138 1.778-2.68 1.778-4.293v0c0-0.618 0.404-1.164 0.996-1.342v0c2.28-0.391 4.613-0.391 6.893 0v0c0.596 0.182 1 0.724 1 1.342v0c0 1.609 0.64 3.156 1.778 4.293z"></path><path d="M16 30.453c-1.178 0-2.356-0.102-3.52-0.302l-0.053-0.013c-0.787-0.231-1.316-0.942-1.316-1.76 0-1.502-0.587-2.916-1.649-3.978l-0.316-0.316 0.631-0.631 0.316 0.316c1.231 1.231 1.907 2.867 1.907 4.609 0 0.418 0.262 0.778 0.658 0.907 2.218 0.378 4.467 0.378 6.684 0 0.396-0.129 0.658-0.489 0.658-0.907 0-1.742 0.676-3.378 1.907-4.604l0.316-0.32 0.627 0.627-0.316 0.316c-1.058 1.067-1.644 2.476-1.644 3.982 0 0.822-0.529 1.529-1.316 1.764l-0.053 0.013c-1.169 0.2-2.342 0.298-3.52 0.298z"></path><path opacity="0.12" d="M22.222 24.084c-1.138 1.138-1.778 2.68-1.778 4.293v0c0 0.618-0.404 1.164-0.996 1.342v0c-2.28 0.391-4.613 0.391-6.893 0v0c-0.591-0.178-0.996-0.724-0.996-1.342v0c0-1.609-0.64-3.156-1.778-4.293z"></path><path d="M20.889 22.636h-9.778c-0.964 0-1.747-0.782-1.747-1.747v-9.778c0-0.964 0.782-1.747 1.747-1.747h9.778c0.964 0 1.747 0.782 1.747 1.747v9.778c0 0.964-0.782 1.747-1.747 1.747zM11.111 10.191c-0.507 0-0.92 0.413-0.92 0.92v9.778c0 0.507 0.413 0.92 0.92 0.92h9.778c0.507 0 0.92-0.413 0.92-0.92v-9.778c0-0.507-0.413-0.92-0.92-0.92h-9.778z"></path><path d="M16.004 16.627l-1.933-1.907c-0.173-0.173-0.178-0.453-0.004-0.627s0.453-0.178 0.627-0.004l1.307 1.284 3.458-3.458c0.173-0.173 0.453-0.173 0.627 0s0.173 0.453 0 0.627l-4.080 4.084z"></path><path d="M16 12.444c-0.244 0-0.444-0.2-0.444-0.444v-0.889c0-0.244 0.2-0.444 0.444-0.444s0.444 0.2 0.444 0.444v0.889c0 0.244-0.2 0.444-0.444 0.444z"></path><path d="M16 21.333c-0.244 0-0.444-0.2-0.444-0.444v-0.889c0-0.244 0.2-0.444 0.444-0.444s0.444 0.2 0.444 0.444v0.889c0 0.244-0.2 0.444-0.444 0.444z"></path><path d="M20.889 16.444h-0.889c-0.244 0-0.444-0.2-0.444-0.444s0.2-0.444 0.444-0.444h0.889c0.244 0 0.444 0.2 0.444 0.444s-0.2 0.444-0.444 0.444z"></path><path d="M12 16.444h-0.889c-0.244 0-0.444-0.2-0.444-0.444s0.2-0.444 0.444-0.444h0.889c0.244 0 0.444 0.2 0.444 0.444s-0.2 0.444-0.444 0.444z"></path><path d="M12.858 13.302c-0.116 0-0.227-0.044-0.316-0.129l-0.627-0.627c-0.173-0.173-0.173-0.453 0-0.627s0.453-0.173 0.627 0l0.627 0.627c0.173 0.173 0.173 0.453 0 0.627-0.084 0.084-0.2 0.129-0.311 0.129z"></path><path d="M19.773 20.218c-0.116 0-0.227-0.044-0.316-0.129l-0.627-0.627c-0.173-0.173-0.173-0.453 0-0.627s0.453-0.173 0.627 0l0.627 0.627c0.173 0.173 0.173 0.453 0 0.627-0.084 0.084-0.2 0.129-0.311 0.129z"></path><path d="M12.227 20.218c-0.116 0-0.227-0.044-0.316-0.129-0.173-0.173-0.173-0.453 0-0.627l0.627-0.627c0.173-0.173 0.453-0.173 0.627 0s0.173 0.453 0 0.627l-0.627 0.627c-0.080 0.084-0.196 0.129-0.311 0.129z"></path></svg>